<?xml version="1.0" encoding="utf-8"?>
<!-- Generator: Adobe Illustrator 24.0.1, SVG Export Plug-In . SVG Version: 6.00 Build 0)  -->
<svg version="1.1" id="Layer_1" xmlns="http://www.w3.org/2000/svg" xmlns:xlink="http://www.w3.org/1999/xlink" x="0px" y="0px"
	 viewBox="0 0 488 293" style="enable-background:new 0 0 488 293;" xml:space="preserve">
<style type="text/css">
	.st0{clip-path:url(#SVGID_3_);fill:none;stroke:#000000;stroke-width:1.1055;stroke-miterlimit:10;}
	.st1{clip-path:url(#SVGID_3_);stroke:#000000;stroke-width:1.1055;stroke-miterlimit:10;}
	.st2{clip-path:url(#SVGID_3_);}
	.st3{fill:#FFFFFF;}
	.st4{clip-path:url(#SVGID_5_);fill:none;stroke:#FFFFFF;stroke-width:1.1055;stroke-miterlimit:10;}
	.st5{clip-path:url(#SVGID_5_);fill:#FFFFFF;stroke:#FFFFFF;stroke-width:1.1055;stroke-miterlimit:10;}
	.st6{clip-path:url(#SVGID_5_);}
	.st7{clip-path:url(#SVGID_5_);fill:#FFFFFF;}
	.st8{fill:#1D1D1B;}
	.st9{fill:#575756;}
	.st10{fill:#26C0E3;}
	.st11{clip-path:url(#SVGID_6_);fill:none;stroke:#1D1D1B;stroke-width:1.1055;stroke-miterlimit:10;}
	.st12{clip-path:url(#SVGID_6_);fill:#FFFFFF;stroke:#1D1D1B;stroke-width:1.1055;stroke-miterlimit:10;}
	.st13{clip-path:url(#SVGID_6_);}
	.st14{clip-path:url(#SVGID_6_);fill:#1D1D1B;}
</style>
<g>
	<polygon class="st8" points="310.12,161.36 310.12,164.15 455.01,229.04 455.01,226.24 	"/>
</g>
<g>
	<g>
		<path class="st9" d="M39.43,209.26h2.8v15.64h8.42v1.07H39.43V209.26z"/>
		<path class="st9" d="M58.1,226.25c-0.87,0-1.69-0.16-2.45-0.49c-0.77-0.33-1.44-0.78-2.01-1.34c-0.57-0.56-1.02-1.22-1.36-1.98
			c-0.33-0.76-0.5-1.57-0.5-2.43c0-1.03,0.15-1.99,0.46-2.87c0.3-0.88,0.73-1.64,1.28-2.28c0.55-0.64,1.21-1.14,2-1.5
			c0.78-0.36,1.64-0.54,2.6-0.54c0.85,0,1.62,0.15,2.33,0.44c0.7,0.3,1.31,0.69,1.81,1.2c0.51,0.5,0.9,1.08,1.18,1.73
			c0.28,0.66,0.42,1.34,0.42,2.06h-9.61c0,0.86,0.11,1.67,0.34,2.41c0.23,0.74,0.54,1.37,0.94,1.91c0.4,0.54,0.88,0.95,1.44,1.26
			c0.57,0.3,1.18,0.45,1.84,0.45c0.56,0,1.09-0.09,1.61-0.27c0.51-0.18,0.97-0.42,1.39-0.71c0.42-0.3,0.77-0.63,1.07-1.01
			c0.3-0.38,0.49-0.77,0.62-1.17l0.73,0.32c-0.18,0.66-0.48,1.28-0.89,1.87c-0.41,0.58-0.89,1.09-1.44,1.52
			c-0.55,0.43-1.15,0.77-1.8,1.03C59.42,226.13,58.77,226.25,58.1,226.25z M60.66,217.23c0-0.49-0.09-0.94-0.26-1.36
			c-0.17-0.42-0.41-0.78-0.71-1.09c-0.3-0.31-0.65-0.55-1.05-0.73c-0.41-0.17-0.84-0.26-1.3-0.26c-0.38,0-0.76,0.09-1.11,0.26
			c-0.35,0.18-0.67,0.42-0.95,0.72c-0.28,0.31-0.5,0.67-0.68,1.09c-0.18,0.42-0.29,0.88-0.33,1.36L60.66,217.23z"/>
		<path class="st9" d="M76.1,225.98h-2.57v-1.76c-0.3,0.24-0.6,0.47-0.89,0.71c-0.29,0.24-0.61,0.46-0.95,0.66
			c-0.34,0.2-0.71,0.36-1.13,0.48c-0.41,0.13-0.89,0.19-1.43,0.19c-0.51,0-0.96-0.08-1.37-0.24c-0.41-0.16-0.76-0.39-1.05-0.68
			c-0.28-0.29-0.51-0.63-0.65-1.02c-0.16-0.39-0.23-0.81-0.23-1.27c0-0.55,0.11-1.05,0.33-1.5c0.22-0.45,0.53-0.85,0.91-1.2
			c0.38-0.35,0.82-0.66,1.33-0.93c0.51-0.27,1.05-0.51,1.62-0.73c0.57-0.21,1.15-0.41,1.76-0.57c0.6-0.17,1.2-0.33,1.77-0.47v-0.81
			c0-0.59-0.06-1.08-0.17-1.48c-0.11-0.4-0.28-0.73-0.5-0.98c-0.22-0.25-0.48-0.42-0.78-0.53c-0.3-0.11-0.66-0.16-1.04-0.16
			c-0.43,0-0.78,0.06-1.05,0.17c-0.27,0.11-0.49,0.26-0.64,0.44c-0.15,0.18-0.27,0.39-0.32,0.63c-0.06,0.23-0.09,0.47-0.09,0.71
			c0,0.22-0.01,0.44-0.05,0.65c-0.04,0.21-0.1,0.39-0.2,0.55c-0.1,0.15-0.23,0.28-0.39,0.38c-0.16,0.09-0.37,0.14-0.63,0.14
			c-0.2,0-0.38-0.03-0.55-0.11c-0.16-0.08-0.31-0.18-0.42-0.32c-0.12-0.13-0.22-0.29-0.28-0.47c-0.06-0.19-0.1-0.39-0.1-0.6
			c0-0.42,0.15-0.82,0.42-1.19c0.28-0.37,0.66-0.68,1.13-0.95c0.47-0.27,1.02-0.48,1.66-0.64c0.63-0.16,1.29-0.23,1.99-0.23
			c0.85,0,1.56,0.08,2.15,0.24c0.58,0.17,1.06,0.4,1.41,0.69c0.36,0.3,0.62,0.65,0.78,1.08c0.16,0.42,0.24,0.89,0.24,1.4V225.98z
			 M73.53,218.47c-0.36,0.12-0.75,0.26-1.14,0.41c-0.4,0.15-0.79,0.32-1.17,0.51c-0.38,0.19-0.74,0.39-1.08,0.61
			c-0.35,0.22-0.65,0.45-0.91,0.7c-0.26,0.25-0.47,0.51-0.62,0.79c-0.16,0.28-0.23,0.57-0.23,0.88c0,0.31,0.05,0.61,0.18,0.89
			c0.12,0.28,0.27,0.53,0.46,0.74c0.19,0.21,0.41,0.38,0.66,0.5c0.25,0.13,0.52,0.19,0.79,0.19c0.29,0,0.56-0.04,0.82-0.11
			c0.26-0.08,0.51-0.18,0.76-0.31c0.24-0.13,0.49-0.28,0.73-0.45c0.25-0.18,0.49-0.36,0.75-0.55V218.47z"/>
		<path class="st9" d="M88.63,224.72c-0.3,0.24-0.61,0.45-0.96,0.64c-0.34,0.19-0.7,0.35-1.07,0.48c-0.37,0.13-0.75,0.23-1.13,0.3
			c-0.38,0.07-0.75,0.1-1.11,0.1c-0.76,0-1.47-0.17-2.13-0.52c-0.66-0.36-1.24-0.83-1.73-1.43c-0.49-0.6-0.88-1.3-1.16-2.09
			c-0.28-0.79-0.43-1.63-0.43-2.51c0-0.58,0.08-1.16,0.25-1.73c0.16-0.57,0.39-1.11,0.68-1.61c0.3-0.51,0.64-0.98,1.06-1.41
			c0.41-0.43,0.87-0.81,1.38-1.12c0.5-0.31,1.04-0.56,1.61-0.74c0.57-0.17,1.17-0.26,1.8-0.26c0.62,0,1.17,0.11,1.64,0.33
			c0.47,0.22,0.91,0.51,1.31,0.87v-6.8l1.79-0.73h0.76v19.76h-2.54V224.72z M88.63,217.18c0-0.5-0.1-0.96-0.28-1.38
			c-0.19-0.42-0.44-0.78-0.73-1.08c-0.31-0.3-0.65-0.53-1.03-0.69c-0.39-0.17-0.78-0.25-1.16-0.25c-0.52,0-0.99,0.13-1.44,0.38
			c-0.44,0.25-0.83,0.61-1.17,1.06c-0.33,0.46-0.59,1-0.78,1.64c-0.19,0.63-0.29,1.33-0.29,2.1c0,0.81,0.1,1.58,0.32,2.3
			c0.21,0.71,0.5,1.33,0.87,1.87c0.37,0.53,0.8,0.95,1.29,1.26c0.49,0.31,1.02,0.46,1.57,0.46c0.28,0,0.54-0.04,0.81-0.11
			c0.27-0.07,0.53-0.17,0.77-0.29c0.24-0.12,0.47-0.26,0.68-0.42c0.22-0.16,0.4-0.33,0.57-0.51V217.18z"/>
		<path class="st9" d="M95.55,206.49c0.2,0,0.39,0.03,0.57,0.1c0.18,0.07,0.33,0.16,0.47,0.28c0.13,0.11,0.24,0.25,0.32,0.41
			c0.08,0.15,0.12,0.32,0.12,0.5c0,0.18-0.04,0.34-0.12,0.5c-0.08,0.16-0.18,0.3-0.32,0.41c-0.13,0.12-0.29,0.21-0.47,0.28
			c-0.18,0.07-0.37,0.1-0.57,0.1c-0.2,0-0.39-0.03-0.57-0.1c-0.18-0.07-0.33-0.16-0.46-0.28c-0.13-0.11-0.24-0.25-0.32-0.41
			c-0.08-0.15-0.12-0.32-0.12-0.5c0-0.18,0.04-0.34,0.12-0.5c0.08-0.16,0.19-0.3,0.32-0.41c0.13-0.12,0.28-0.21,0.46-0.28
			C95.16,206.53,95.35,206.49,95.55,206.49z M94.3,213.56l1.8-0.73h0.74v13.15H94.3V213.56z"/>
		<path class="st9" d="M99.96,213.09h2.56v2.35c0.77-0.87,1.58-1.52,2.42-1.96c0.84-0.44,1.7-0.65,2.57-0.65
			c0.45,0,0.87,0.1,1.27,0.3c0.4,0.2,0.74,0.48,1.03,0.83c0.3,0.35,0.52,0.77,0.7,1.24c0.17,0.48,0.26,0.98,0.26,1.52v9.25h-2.57
			v-8.82c0-0.85-0.19-1.49-0.58-1.93c-0.38-0.44-0.88-0.66-1.47-0.66c-0.28,0-0.57,0.04-0.87,0.13c-0.3,0.08-0.61,0.21-0.93,0.37
			c-0.31,0.16-0.62,0.36-0.93,0.59c-0.31,0.23-0.61,0.48-0.9,0.76v9.55h-2.56V213.09z"/>
		<path class="st9" d="M126.49,213.77v1.06h-2.45c0.26,0.36,0.46,0.75,0.61,1.19c0.15,0.44,0.23,0.87,0.23,1.3
			c0,0.67-0.15,1.28-0.45,1.83c-0.29,0.55-0.7,1.02-1.23,1.42c-0.53,0.39-1.16,0.7-1.89,0.92c-0.73,0.21-1.54,0.32-2.42,0.32
			c-0.32,0-0.65-0.03-0.99-0.08c-0.34-0.06-0.63-0.12-0.88-0.2c-0.25,0.2-0.45,0.43-0.62,0.7c-0.17,0.26-0.25,0.53-0.25,0.8
			c0,0.25,0.14,0.46,0.42,0.62c0.29,0.16,0.68,0.25,1.2,0.26l4.78,0.2c0.76,0.03,1.39,0.12,1.9,0.27c0.51,0.15,0.91,0.34,1.22,0.59
			c0.31,0.24,0.52,0.54,0.64,0.88c0.12,0.34,0.18,0.73,0.18,1.14c0,0.75-0.17,1.43-0.52,2.04c-0.35,0.61-0.85,1.13-1.51,1.56
			c-0.66,0.43-1.46,0.75-2.41,0.99c-0.94,0.23-2.01,0.35-3.21,0.35c-2.12,0-3.71-0.24-4.77-0.72c-1.05-0.48-1.58-1.12-1.58-1.91
			c0-0.35,0.09-0.69,0.27-1.02c0.17-0.33,0.4-0.64,0.68-0.94c0.28-0.3,0.58-0.58,0.92-0.86c0.34-0.28,0.67-0.54,1-0.8
			c-0.24-0.07-0.46-0.16-0.67-0.27c-0.2-0.1-0.38-0.22-0.53-0.35c-0.15-0.13-0.27-0.28-0.35-0.43c-0.09-0.16-0.13-0.33-0.13-0.51
			c0-0.26,0.06-0.53,0.2-0.81c0.14-0.28,0.32-0.54,0.57-0.8c0.24-0.25,0.52-0.49,0.83-0.7c0.32-0.21,0.65-0.38,1.02-0.52
			c-0.87-0.37-1.55-0.88-2.04-1.54c-0.48-0.66-0.73-1.42-0.73-2.27c0-0.63,0.14-1.23,0.44-1.79c0.29-0.57,0.69-1.06,1.2-1.48
			c0.51-0.42,1.11-0.75,1.8-0.99c0.69-0.25,1.44-0.36,2.23-0.36c0.38,0,0.76,0.03,1.14,0.07c0.37,0.05,0.73,0.12,1.05,0.21
			c0.32,0.08,0.61,0.18,0.86,0.3c0.25,0.11,0.44,0.23,0.58,0.36H126.49z M116.15,225.87c-0.19,0.14-0.36,0.31-0.51,0.48
			c-0.14,0.18-0.27,0.36-0.37,0.56c-0.1,0.19-0.18,0.39-0.23,0.59c-0.05,0.19-0.08,0.38-0.08,0.56c0,0.29,0.1,0.56,0.3,0.83
			c0.2,0.27,0.51,0.49,0.91,0.69c0.4,0.2,0.91,0.36,1.52,0.48c0.6,0.12,1.31,0.18,2.12,0.18c0.86,0,1.62-0.07,2.3-0.21
			c0.68-0.13,1.26-0.32,1.73-0.54c0.48-0.22,0.84-0.47,1.08-0.75c0.25-0.27,0.37-0.55,0.37-0.83c0-0.58-0.29-1-0.86-1.26
			c-0.58-0.26-1.36-0.39-2.35-0.39c-0.61,0-1.23-0.01-1.87-0.04c-0.63-0.03-1.22-0.06-1.77-0.1c-0.55-0.04-1.03-0.08-1.44-0.13
			C116.61,225.94,116.32,225.9,116.15,225.87z M119.34,221.13c0.36,0,0.71-0.08,1.04-0.24c0.34-0.17,0.63-0.39,0.89-0.68
			c0.26-0.29,0.46-0.63,0.61-1.01c0.15-0.38,0.23-0.79,0.23-1.23c0-0.63-0.08-1.22-0.26-1.76c-0.17-0.54-0.4-1.01-0.7-1.41
			c-0.3-0.4-0.64-0.71-1.03-0.94c-0.4-0.23-0.81-0.34-1.25-0.34c-0.43,0-0.81,0.09-1.12,0.27c-0.31,0.18-0.57,0.43-0.78,0.74
			c-0.2,0.31-0.35,0.68-0.45,1.1c-0.1,0.43-0.15,0.88-0.15,1.37c0,0.58,0.07,1.13,0.22,1.63c0.15,0.51,0.35,0.94,0.61,1.32
			c0.26,0.37,0.57,0.66,0.94,0.88C118.5,221.03,118.89,221.13,119.34,221.13z"/>
		<path class="st9" d="M139.25,217.68c0,1.18,0.18,2.23,0.53,3.15c0.36,0.93,0.84,1.72,1.45,2.36c0.61,0.64,1.35,1.14,2.19,1.48
			c0.85,0.34,1.76,0.51,2.74,0.51c0.59,0,1.15-0.11,1.69-0.34c0.54-0.23,1.05-0.53,1.52-0.89c0.47-0.36,0.89-0.78,1.25-1.24
			c0.37-0.46,0.67-0.92,0.91-1.4l1.18,0.76c-0.35,0.56-0.75,1.1-1.22,1.62c-0.47,0.52-1.01,0.98-1.62,1.38
			c-0.62,0.39-1.32,0.71-2.09,0.95c-0.78,0.24-1.64,0.36-2.6,0.36c-0.92,0-1.79-0.11-2.61-0.32c-0.82-0.21-1.57-0.51-2.25-0.89
			c-0.69-0.38-1.3-0.84-1.84-1.37c-0.54-0.54-1-1.13-1.37-1.77c-0.37-0.64-0.65-1.33-0.86-2.07c-0.2-0.73-0.3-1.5-0.3-2.28
			c0-0.79,0.1-1.54,0.31-2.28c0.2-0.74,0.49-1.44,0.87-2.09c0.38-0.65,0.85-1.25,1.4-1.79c0.56-0.55,1.18-1.01,1.86-1.4
			c0.7-0.39,1.46-0.69,2.28-0.9c0.82-0.22,1.71-0.33,2.64-0.33c0.89,0,1.71,0.12,2.45,0.36c0.75,0.24,1.43,0.56,2.05,0.95
			c0.62,0.4,1.17,0.85,1.65,1.37c0.48,0.52,0.89,1.06,1.24,1.62L151.5,214c-0.71-1.35-1.49-2.34-2.35-2.97
			c-0.87-0.63-1.85-0.94-2.98-0.94c-0.97,0-1.87,0.17-2.71,0.53c-0.84,0.35-1.57,0.86-2.19,1.51c-0.62,0.65-1.12,1.45-1.48,2.38
			C139.43,215.44,139.25,216.5,139.25,217.68z"/>
		<path class="st9" d="M156.96,206.49c0.2,0,0.39,0.03,0.57,0.1c0.18,0.07,0.34,0.16,0.47,0.28c0.13,0.11,0.24,0.25,0.32,0.41
			c0.08,0.15,0.12,0.32,0.12,0.5c0,0.18-0.04,0.34-0.12,0.5c-0.08,0.16-0.19,0.3-0.32,0.41c-0.13,0.12-0.29,0.21-0.47,0.28
			c-0.18,0.07-0.37,0.1-0.57,0.1c-0.2,0-0.39-0.03-0.56-0.1c-0.18-0.07-0.33-0.16-0.47-0.28c-0.13-0.11-0.24-0.25-0.32-0.41
			c-0.08-0.15-0.12-0.32-0.12-0.5c0-0.18,0.04-0.34,0.12-0.5c0.08-0.16,0.18-0.3,0.32-0.41c0.13-0.12,0.29-0.21,0.47-0.28
			C156.57,206.53,156.76,206.49,156.96,206.49z M155.71,213.56l1.8-0.73h0.74v13.15h-2.55V213.56z"/>
		<path class="st9" d="M168.24,224.34c-0.34,0.6-0.8,1.06-1.37,1.41c-0.57,0.34-1.26,0.51-2.1,0.51c-0.43,0-0.81-0.07-1.12-0.21
			c-0.32-0.14-0.58-0.35-0.79-0.61c-0.21-0.26-0.36-0.58-0.46-0.94c-0.1-0.37-0.15-0.78-0.15-1.22v-9.08h-2.23v-0.64
			c0.72,0,1.31-0.13,1.78-0.39c0.46-0.26,0.84-0.61,1.14-1.06c0.29-0.44,0.53-0.95,0.7-1.54c0.16-0.58,0.31-1.2,0.44-1.86h0.73v4.4
			h2.89v1.08h-2.89v9.08c0,0.19,0.04,0.37,0.11,0.54c0.07,0.17,0.17,0.32,0.29,0.44c0.12,0.12,0.27,0.22,0.44,0.29
			c0.18,0.07,0.36,0.11,0.55,0.11c0.29,0,0.55-0.07,0.78-0.21c0.24-0.14,0.44-0.31,0.62-0.52L168.24,224.34z"/>
		<path class="st9" d="M171.15,206.49c0.2,0,0.39,0.03,0.57,0.1c0.18,0.07,0.33,0.16,0.47,0.28c0.13,0.11,0.23,0.25,0.31,0.41
			c0.08,0.15,0.12,0.32,0.12,0.5c0,0.18-0.04,0.34-0.12,0.5c-0.08,0.16-0.19,0.3-0.31,0.41c-0.13,0.12-0.29,0.21-0.47,0.28
			c-0.18,0.07-0.37,0.1-0.57,0.1c-0.2,0-0.39-0.03-0.56-0.1c-0.17-0.07-0.33-0.16-0.46-0.28c-0.13-0.11-0.24-0.25-0.31-0.41
			c-0.08-0.15-0.12-0.32-0.12-0.5c0-0.18,0.04-0.34,0.12-0.5c0.08-0.16,0.18-0.3,0.31-0.41c0.14-0.12,0.29-0.21,0.46-0.28
			C170.76,206.53,170.95,206.49,171.15,206.49z M169.9,213.56l1.8-0.73h0.74v13.15h-2.55V213.56z"/>
		<path class="st9" d="M181.28,226.25c-0.87,0-1.69-0.16-2.45-0.49c-0.77-0.33-1.44-0.78-2.01-1.34c-0.57-0.56-1.02-1.22-1.35-1.98
			c-0.33-0.76-0.5-1.57-0.5-2.43c0-1.03,0.15-1.99,0.46-2.87c0.3-0.88,0.73-1.64,1.28-2.28c0.56-0.64,1.22-1.14,2-1.5
			c0.78-0.36,1.64-0.54,2.6-0.54c0.85,0,1.62,0.15,2.33,0.44c0.7,0.3,1.31,0.69,1.81,1.2c0.51,0.5,0.9,1.08,1.18,1.73
			c0.28,0.66,0.42,1.34,0.42,2.06h-9.61c0,0.86,0.11,1.67,0.33,2.41c0.23,0.74,0.54,1.37,0.93,1.91c0.4,0.54,0.88,0.95,1.44,1.26
			c0.56,0.3,1.17,0.45,1.84,0.45c0.56,0,1.09-0.09,1.61-0.27c0.51-0.18,0.97-0.42,1.39-0.71c0.42-0.3,0.77-0.63,1.06-1.01
			c0.3-0.38,0.5-0.77,0.62-1.17l0.74,0.32c-0.19,0.66-0.49,1.28-0.9,1.87c-0.41,0.58-0.89,1.09-1.44,1.52
			c-0.55,0.43-1.15,0.77-1.8,1.03C182.6,226.13,181.94,226.25,181.28,226.25z M183.83,217.23c0-0.49-0.09-0.94-0.26-1.36
			c-0.17-0.42-0.41-0.78-0.71-1.09c-0.3-0.31-0.65-0.55-1.06-0.73c-0.4-0.17-0.83-0.26-1.3-0.26c-0.38,0-0.76,0.09-1.11,0.26
			c-0.36,0.18-0.67,0.42-0.95,0.72c-0.27,0.31-0.51,0.67-0.68,1.09c-0.18,0.42-0.29,0.88-0.33,1.36L183.83,217.23z"/>
		<path class="st9" d="M193.9,225.36c0.35,0,0.67-0.05,0.97-0.16c0.3-0.11,0.55-0.25,0.76-0.42c0.21-0.18,0.38-0.38,0.5-0.61
			c0.12-0.23,0.18-0.47,0.18-0.71c0-0.39-0.1-0.74-0.29-1.03c-0.19-0.29-0.45-0.56-0.78-0.79c-0.33-0.24-0.7-0.45-1.11-0.64
			c-0.42-0.2-0.84-0.39-1.27-0.6c-0.43-0.21-0.85-0.42-1.27-0.66c-0.41-0.23-0.78-0.51-1.11-0.81c-0.32-0.31-0.58-0.66-0.78-1.07
			c-0.19-0.4-0.29-0.88-0.29-1.43c0-0.52,0.11-1,0.33-1.44c0.22-0.44,0.52-0.82,0.92-1.14c0.38-0.32,0.84-0.57,1.39-0.75
			c0.54-0.18,1.13-0.27,1.77-0.27c0.43,0,0.82,0.03,1.2,0.09c0.37,0.06,0.75,0.18,1.1,0.35c0.35,0.17,0.71,0.41,1.06,0.72
			c0.36,0.32,0.73,0.72,1.11,1.22l-0.93,0.84c-0.49-0.8-1.03-1.39-1.64-1.79c-0.61-0.39-1.25-0.59-1.94-0.59
			c-0.36,0-0.69,0.04-1,0.14c-0.3,0.09-0.56,0.22-0.78,0.37c-0.22,0.16-0.39,0.34-0.5,0.55c-0.12,0.2-0.18,0.43-0.18,0.66
			c0,0.38,0.11,0.72,0.32,1.01c0.22,0.29,0.5,0.55,0.86,0.78c0.35,0.23,0.75,0.44,1.2,0.64c0.45,0.19,0.91,0.39,1.38,0.6
			c0.48,0.21,0.93,0.42,1.38,0.65c0.45,0.24,0.84,0.51,1.2,0.81c0.35,0.31,0.63,0.66,0.85,1.07c0.22,0.4,0.32,0.88,0.32,1.41
			c0,0.54-0.1,1.06-0.3,1.53c-0.21,0.47-0.52,0.89-0.92,1.23c-0.41,0.35-0.92,0.63-1.54,0.82c-0.62,0.2-1.34,0.3-2.17,0.3
			c-0.37,0-0.76-0.03-1.16-0.09c-0.39-0.06-0.79-0.18-1.2-0.35c-0.41-0.17-0.81-0.41-1.21-0.72c-0.4-0.31-0.8-0.72-1.18-1.22
			l1.04-0.95c0.31,0.44,0.61,0.82,0.9,1.12c0.29,0.3,0.58,0.56,0.87,0.76c0.29,0.2,0.59,0.34,0.91,0.43
			C193.2,225.32,193.53,225.36,193.9,225.36z"/>
		<path class="st9" d="M211.78,217.68c0,1.18,0.18,2.23,0.53,3.15c0.35,0.93,0.83,1.72,1.45,2.36c0.61,0.64,1.34,1.14,2.19,1.48
			c0.84,0.34,1.76,0.51,2.74,0.51c0.59,0,1.15-0.11,1.7-0.34c0.54-0.23,1.05-0.53,1.52-0.89c0.47-0.36,0.89-0.78,1.25-1.24
			c0.37-0.46,0.67-0.92,0.91-1.4l1.18,0.76c-0.34,0.56-0.75,1.1-1.21,1.62c-0.47,0.52-1.01,0.98-1.63,1.38
			c-0.62,0.39-1.31,0.71-2.09,0.95c-0.78,0.24-1.64,0.36-2.6,0.36c-0.92,0-1.79-0.11-2.6-0.32c-0.82-0.21-1.57-0.51-2.25-0.89
			c-0.68-0.38-1.29-0.84-1.84-1.37c-0.54-0.54-0.99-1.13-1.37-1.77c-0.37-0.64-0.66-1.33-0.86-2.07c-0.2-0.73-0.3-1.5-0.3-2.28
			c0-0.79,0.1-1.54,0.3-2.28c0.21-0.74,0.5-1.44,0.88-2.09c0.38-0.65,0.84-1.25,1.39-1.79c0.55-0.55,1.17-1.01,1.87-1.4
			c0.69-0.39,1.45-0.69,2.28-0.9c0.82-0.22,1.7-0.33,2.63-0.33c0.89,0,1.71,0.12,2.45,0.36c0.75,0.24,1.43,0.56,2.05,0.95
			c0.62,0.4,1.17,0.85,1.65,1.37c0.48,0.52,0.89,1.06,1.23,1.62l-1.21,0.81c-0.71-1.35-1.49-2.34-2.35-2.97
			c-0.87-0.63-1.85-0.94-2.97-0.94c-0.97,0-1.87,0.17-2.71,0.53c-0.84,0.35-1.57,0.86-2.19,1.51c-0.62,0.65-1.12,1.45-1.48,2.38
			C211.96,215.44,211.78,216.5,211.78,217.68z"/>
		<path class="st9" d="M234.39,226.25c-0.98,0-1.89-0.17-2.73-0.51c-0.83-0.35-1.55-0.81-2.15-1.41c-0.61-0.59-1.08-1.29-1.42-2.08
			c-0.34-0.79-0.52-1.64-0.52-2.55c0-0.95,0.18-1.84,0.52-2.68c0.34-0.84,0.81-1.56,1.42-2.18c0.6-0.62,1.32-1.11,2.15-1.47
			c0.84-0.36,1.75-0.54,2.73-0.54c0.99,0,1.89,0.16,2.72,0.49c0.83,0.33,1.55,0.78,2.15,1.35c0.61,0.57,1.08,1.24,1.43,2.01
			c0.34,0.78,0.51,1.6,0.51,2.48c0,0.98-0.17,1.89-0.51,2.75c-0.34,0.86-0.82,1.61-1.43,2.26c-0.61,0.64-1.33,1.15-2.15,1.52
			C236.28,226.07,235.38,226.25,234.39,226.25z M234.88,225.31c0.5,0,0.96-0.13,1.38-0.39c0.42-0.26,0.79-0.61,1.09-1.04
			c0.31-0.43,0.55-0.94,0.71-1.53c0.17-0.59,0.25-1.2,0.25-1.85c0-0.93-0.08-1.81-0.24-2.62c-0.16-0.81-0.42-1.52-0.78-2.13
			c-0.36-0.6-0.83-1.08-1.4-1.43c-0.57-0.35-1.28-0.52-2.12-0.52c-0.43,0-0.85,0.12-1.25,0.37c-0.4,0.25-0.76,0.59-1.06,1.02
			c-0.31,0.43-0.55,0.93-0.74,1.51c-0.18,0.58-0.28,1.19-0.28,1.83c0,0.93,0.1,1.81,0.3,2.64c0.2,0.82,0.49,1.54,0.86,2.16
			c0.38,0.61,0.84,1.09,1.4,1.45C233.55,225.13,234.18,225.31,234.88,225.31z"/>
		<path class="st9" d="M243.65,213.09h2.56v2.35c0.78-0.87,1.58-1.52,2.42-1.96c0.84-0.44,1.7-0.65,2.57-0.65
			c0.44,0,0.87,0.1,1.26,0.3c0.39,0.2,0.74,0.48,1.03,0.83c0.29,0.35,0.52,0.77,0.69,1.24c0.18,0.48,0.26,0.98,0.26,1.52v9.25h-2.57
			v-8.82c0-0.85-0.19-1.49-0.57-1.93c-0.39-0.44-0.88-0.66-1.48-0.66c-0.27,0-0.56,0.04-0.86,0.13c-0.3,0.08-0.61,0.21-0.92,0.37
			c-0.32,0.16-0.62,0.36-0.93,0.59c-0.32,0.23-0.62,0.48-0.9,0.76v9.55h-2.56V213.09z"/>
		<path class="st9" d="M264.25,224.34c-0.34,0.6-0.8,1.06-1.37,1.41c-0.57,0.34-1.27,0.51-2.1,0.51c-0.44,0-0.81-0.07-1.12-0.21
			c-0.31-0.14-0.58-0.35-0.78-0.61c-0.21-0.26-0.36-0.58-0.46-0.94c-0.11-0.37-0.15-0.78-0.15-1.22v-9.08h-2.23v-0.64
			c0.72,0,1.31-0.13,1.77-0.39c0.47-0.26,0.85-0.61,1.15-1.06c0.29-0.44,0.52-0.95,0.7-1.54c0.17-0.58,0.31-1.2,0.44-1.86h0.73v4.4
			h2.9v1.08h-2.9v9.08c0,0.19,0.04,0.37,0.11,0.54c0.07,0.17,0.17,0.32,0.29,0.44c0.13,0.12,0.28,0.22,0.44,0.29
			c0.17,0.07,0.36,0.11,0.55,0.11c0.28,0,0.55-0.07,0.78-0.21c0.24-0.14,0.45-0.31,0.62-0.52L264.25,224.34z"/>
		<path class="st9" d="M265.8,213.09h2.54v2.44c0.25-0.36,0.52-0.71,0.81-1.03c0.28-0.33,0.58-0.61,0.9-0.87
			c0.31-0.25,0.63-0.44,0.97-0.58c0.33-0.14,0.67-0.22,1.01-0.22c0.28,0,0.54,0.04,0.78,0.12c0.23,0.08,0.44,0.2,0.63,0.33
			c0.18,0.14,0.32,0.31,0.42,0.49c0.1,0.19,0.16,0.39,0.16,0.6c0,0.42-0.13,0.73-0.39,0.94c-0.26,0.21-0.62,0.32-1.08,0.32
			c-0.29,0-0.52-0.03-0.69-0.09c-0.18-0.06-0.33-0.13-0.47-0.2c-0.14-0.08-0.28-0.15-0.43-0.21c-0.15-0.06-0.32-0.09-0.54-0.09
			c-0.17,0-0.34,0.05-0.51,0.15c-0.17,0.1-0.34,0.24-0.52,0.42c-0.17,0.18-0.34,0.39-0.52,0.63c-0.17,0.25-0.35,0.51-0.53,0.8v8.93
			h-2.54V213.09z"/>
		<path class="st9" d="M285.16,225.98h-2.57v-1.76c-0.3,0.24-0.61,0.47-0.89,0.71c-0.29,0.24-0.61,0.46-0.95,0.66
			c-0.34,0.2-0.72,0.36-1.13,0.48c-0.41,0.13-0.89,0.19-1.43,0.19c-0.51,0-0.96-0.08-1.37-0.24c-0.4-0.16-0.75-0.39-1.04-0.68
			c-0.29-0.29-0.51-0.63-0.66-1.02c-0.16-0.39-0.23-0.81-0.23-1.27c0-0.55,0.11-1.05,0.33-1.5c0.22-0.45,0.52-0.85,0.9-1.2
			c0.38-0.35,0.82-0.66,1.33-0.93c0.51-0.27,1.05-0.51,1.61-0.73c0.57-0.21,1.16-0.41,1.76-0.57c0.6-0.17,1.19-0.33,1.77-0.47v-0.81
			c0-0.59-0.05-1.08-0.18-1.48c-0.11-0.4-0.29-0.73-0.49-0.98c-0.22-0.25-0.49-0.42-0.79-0.53c-0.3-0.11-0.65-0.16-1.03-0.16
			c-0.44,0-0.78,0.06-1.06,0.17c-0.28,0.11-0.49,0.26-0.64,0.44c-0.16,0.18-0.27,0.39-0.32,0.63c-0.05,0.23-0.08,0.47-0.08,0.71
			c0,0.22-0.02,0.44-0.06,0.65c-0.03,0.21-0.1,0.39-0.19,0.55c-0.1,0.15-0.23,0.28-0.4,0.38c-0.16,0.09-0.37,0.14-0.63,0.14
			c-0.2,0-0.38-0.03-0.54-0.11c-0.17-0.08-0.31-0.18-0.43-0.32c-0.12-0.13-0.21-0.29-0.28-0.47c-0.06-0.19-0.09-0.39-0.09-0.6
			c0-0.42,0.14-0.82,0.42-1.19c0.28-0.37,0.66-0.68,1.12-0.95c0.48-0.27,1.03-0.48,1.66-0.64c0.63-0.16,1.29-0.23,1.99-0.23
			c0.85,0,1.56,0.08,2.14,0.24c0.59,0.17,1.06,0.4,1.42,0.69c0.36,0.3,0.62,0.65,0.78,1.08c0.16,0.42,0.24,0.89,0.24,1.4V225.98z
			 M282.59,218.47c-0.37,0.12-0.75,0.26-1.14,0.41c-0.4,0.15-0.78,0.32-1.17,0.51c-0.38,0.19-0.74,0.39-1.09,0.61
			c-0.34,0.22-0.65,0.45-0.91,0.7c-0.26,0.25-0.47,0.51-0.61,0.79c-0.15,0.28-0.23,0.57-0.23,0.88c0,0.31,0.07,0.61,0.18,0.89
			c0.11,0.28,0.27,0.53,0.46,0.74c0.2,0.21,0.41,0.38,0.67,0.5c0.25,0.13,0.51,0.19,0.78,0.19c0.29,0,0.56-0.04,0.82-0.11
			c0.26-0.08,0.51-0.18,0.75-0.31c0.25-0.13,0.49-0.28,0.74-0.45c0.24-0.18,0.49-0.36,0.75-0.55V218.47z"/>
		<path class="st9" d="M294.05,226.25c-0.84,0-1.63-0.17-2.37-0.49c-0.74-0.33-1.39-0.79-1.94-1.36c-0.55-0.58-0.98-1.25-1.29-2.03
			c-0.31-0.78-0.47-1.61-0.47-2.48c0-0.97,0.18-1.89,0.53-2.74c0.35-0.86,0.82-1.6,1.43-2.25c0.61-0.64,1.31-1.14,2.12-1.51
			c0.81-0.37,1.68-0.55,2.61-0.55c0.72,0,1.38,0.07,1.98,0.23c0.61,0.16,1.14,0.37,1.58,0.64c0.44,0.28,0.78,0.61,1.03,0.98
			c0.25,0.37,0.37,0.78,0.37,1.21c0,0.19-0.05,0.37-0.15,0.55c-0.1,0.17-0.23,0.32-0.39,0.45c-0.16,0.13-0.34,0.23-0.55,0.31
			c-0.2,0.08-0.4,0.11-0.61,0.11c-0.24,0-0.45-0.04-0.62-0.13c-0.18-0.09-0.35-0.19-0.48-0.32c-0.13-0.13-0.23-0.28-0.3-0.45
			c-0.07-0.17-0.11-0.34-0.11-0.52c0-0.3-0.03-0.57-0.1-0.84c-0.06-0.26-0.17-0.48-0.33-0.67c-0.16-0.19-0.38-0.34-0.66-0.45
			c-0.28-0.11-0.64-0.16-1.07-0.16c-0.59,0-1.11,0.12-1.57,0.35c-0.46,0.24-0.86,0.56-1.17,0.96c-0.32,0.4-0.57,0.87-0.74,1.41
			c-0.17,0.54-0.25,1.12-0.25,1.72c0,0.82,0.11,1.61,0.32,2.34c0.22,0.73,0.52,1.38,0.91,1.93c0.39,0.55,0.86,0.99,1.41,1.31
			c0.55,0.32,1.17,0.49,1.85,0.49c0.6,0,1.12-0.09,1.56-0.28c0.44-0.19,0.82-0.44,1.15-0.76c0.32-0.32,0.6-0.69,0.83-1.12
			c0.23-0.42,0.44-0.87,0.62-1.34l0.77,0.31c-0.22,0.81-0.51,1.53-0.88,2.17c-0.37,0.64-0.8,1.18-1.3,1.62
			c-0.5,0.44-1.07,0.77-1.7,1C295.47,226.14,294.78,226.25,294.05,226.25z"/>
		<path class="st9" d="M309.22,224.34c-0.34,0.6-0.8,1.06-1.37,1.41c-0.56,0.34-1.26,0.51-2.1,0.51c-0.44,0-0.81-0.07-1.12-0.21
			c-0.32-0.14-0.58-0.35-0.78-0.61c-0.21-0.26-0.37-0.58-0.46-0.94c-0.1-0.37-0.15-0.78-0.15-1.22v-9.08h-2.23v-0.64
			c0.72,0,1.31-0.13,1.77-0.39c0.47-0.26,0.85-0.61,1.14-1.06c0.29-0.44,0.53-0.95,0.7-1.54c0.17-0.58,0.31-1.2,0.44-1.86h0.73v4.4
			h2.9v1.08h-2.9v9.08c0,0.19,0.04,0.37,0.11,0.54c0.07,0.17,0.17,0.32,0.29,0.44c0.13,0.12,0.28,0.22,0.44,0.29
			c0.17,0.07,0.36,0.11,0.55,0.11c0.29,0,0.55-0.07,0.78-0.21c0.24-0.14,0.45-0.31,0.62-0.52L309.22,224.34z"/>
		<path class="st9" d="M312.13,206.49c0.2,0,0.39,0.03,0.57,0.1c0.18,0.07,0.34,0.16,0.47,0.28c0.13,0.11,0.23,0.25,0.31,0.41
			c0.08,0.15,0.12,0.32,0.12,0.5c0,0.18-0.04,0.34-0.12,0.5c-0.08,0.16-0.19,0.3-0.31,0.41c-0.13,0.12-0.29,0.21-0.47,0.28
			c-0.18,0.07-0.37,0.1-0.57,0.1c-0.2,0-0.39-0.03-0.56-0.1c-0.18-0.07-0.33-0.16-0.47-0.28c-0.13-0.11-0.23-0.25-0.31-0.41
			c-0.08-0.15-0.12-0.32-0.12-0.5c0-0.18,0.04-0.34,0.12-0.5c0.08-0.16,0.19-0.3,0.31-0.41c0.14-0.12,0.29-0.21,0.47-0.28
			C311.75,206.53,311.94,206.49,312.13,206.49z M310.89,213.56l1.8-0.73h0.74v13.15h-2.54V213.56z"/>
		<path class="st9" d="M316.55,213.09h2.55v2.35c0.78-0.87,1.59-1.52,2.43-1.96c0.84-0.44,1.7-0.65,2.57-0.65
			c0.44,0,0.86,0.1,1.26,0.3c0.39,0.2,0.75,0.48,1.03,0.83c0.29,0.35,0.53,0.77,0.69,1.24c0.18,0.48,0.26,0.98,0.26,1.52v9.25h-2.57
			v-8.82c0-0.85-0.2-1.49-0.57-1.93c-0.39-0.44-0.88-0.66-1.48-0.66c-0.28,0-0.56,0.04-0.87,0.13c-0.3,0.08-0.61,0.21-0.92,0.37
			c-0.31,0.16-0.62,0.36-0.94,0.59c-0.32,0.23-0.61,0.48-0.9,0.76v9.55h-2.55V213.09z"/>
		<path class="st9" d="M343.08,213.77v1.06h-2.45c0.26,0.36,0.46,0.75,0.61,1.19c0.15,0.44,0.23,0.87,0.23,1.3
			c0,0.67-0.14,1.28-0.44,1.83c-0.29,0.55-0.7,1.02-1.24,1.42c-0.53,0.39-1.15,0.7-1.89,0.92c-0.73,0.21-1.53,0.32-2.41,0.32
			c-0.33,0-0.66-0.03-1-0.08c-0.34-0.06-0.63-0.12-0.88-0.2c-0.25,0.2-0.45,0.43-0.62,0.7c-0.17,0.26-0.25,0.53-0.25,0.8
			c0,0.25,0.14,0.46,0.42,0.62c0.28,0.16,0.68,0.25,1.2,0.26l4.78,0.2c0.76,0.03,1.39,0.12,1.9,0.27c0.51,0.15,0.91,0.34,1.22,0.59
			c0.3,0.24,0.52,0.54,0.64,0.88c0.13,0.34,0.19,0.73,0.19,1.14c0,0.75-0.17,1.43-0.52,2.04c-0.35,0.61-0.86,1.13-1.51,1.56
			c-0.66,0.43-1.47,0.75-2.41,0.99c-0.94,0.23-2.02,0.35-3.21,0.35c-2.13,0-3.71-0.24-4.77-0.72c-1.05-0.48-1.57-1.12-1.57-1.91
			c0-0.35,0.09-0.69,0.27-1.02c0.17-0.33,0.4-0.64,0.68-0.94c0.28-0.3,0.59-0.58,0.92-0.86c0.34-0.28,0.67-0.54,1-0.8
			c-0.24-0.07-0.47-0.16-0.67-0.27c-0.2-0.1-0.38-0.22-0.53-0.35c-0.15-0.13-0.27-0.28-0.36-0.43c-0.09-0.16-0.13-0.33-0.13-0.51
			c0-0.26,0.06-0.53,0.2-0.81c0.14-0.28,0.33-0.54,0.57-0.8c0.23-0.25,0.51-0.49,0.83-0.7c0.31-0.21,0.65-0.38,1.01-0.52
			c-0.87-0.37-1.55-0.88-2.03-1.54c-0.49-0.66-0.74-1.42-0.74-2.27c0-0.63,0.15-1.23,0.44-1.79c0.3-0.57,0.69-1.06,1.2-1.48
			c0.51-0.42,1.11-0.75,1.8-0.99c0.7-0.25,1.43-0.36,2.23-0.36c0.38,0,0.76,0.03,1.14,0.07c0.37,0.05,0.72,0.12,1.05,0.21
			c0.32,0.08,0.61,0.18,0.86,0.3c0.25,0.11,0.44,0.23,0.58,0.36H343.08z M332.74,225.87c-0.19,0.14-0.36,0.31-0.51,0.48
			c-0.15,0.18-0.27,0.36-0.36,0.56c-0.1,0.19-0.18,0.39-0.23,0.59c-0.05,0.19-0.08,0.38-0.08,0.56c0,0.29,0.1,0.56,0.3,0.83
			c0.2,0.27,0.51,0.49,0.91,0.69c0.41,0.2,0.9,0.36,1.52,0.48c0.61,0.12,1.32,0.18,2.12,0.18c0.86,0,1.62-0.07,2.31-0.21
			c0.68-0.13,1.26-0.32,1.73-0.54c0.47-0.22,0.83-0.47,1.08-0.75c0.24-0.27,0.37-0.55,0.37-0.83c0-0.58-0.29-1-0.86-1.26
			c-0.58-0.26-1.36-0.39-2.35-0.39c-0.61,0-1.25-0.01-1.87-0.04c-0.63-0.03-1.22-0.06-1.77-0.1c-0.55-0.04-1.03-0.08-1.44-0.13
			C333.21,225.94,332.91,225.9,332.74,225.87z M335.93,221.13c0.36,0,0.7-0.08,1.04-0.24c0.34-0.17,0.63-0.39,0.89-0.68
			c0.26-0.29,0.46-0.63,0.61-1.01c0.15-0.38,0.23-0.79,0.23-1.23c0-0.63-0.09-1.22-0.26-1.76c-0.17-0.54-0.4-1.01-0.7-1.41
			c-0.29-0.4-0.64-0.71-1.03-0.94c-0.39-0.23-0.81-0.34-1.24-0.34s-0.81,0.09-1.12,0.27c-0.31,0.18-0.57,0.43-0.78,0.74
			c-0.2,0.31-0.35,0.68-0.45,1.1c-0.1,0.43-0.14,0.88-0.14,1.37c0,0.58,0.07,1.13,0.22,1.63c0.13,0.51,0.34,0.94,0.61,1.32
			c0.26,0.37,0.57,0.66,0.93,0.88C335.09,221.03,335.49,221.13,335.93,221.13z"/>
		<path class="st9" d="M364.89,209.26v1.08h-8.81v5.98h5.89v1.08h-5.89v7.51h8.81v1.07h-11.62v-16.71H364.89z"/>
		<path class="st9" d="M372.58,225.31c0.41,0,0.83-0.05,1.23-0.17c0.4-0.11,0.77-0.28,1.08-0.5c0.32-0.22,0.57-0.5,0.76-0.82
			c0.19-0.32,0.29-0.7,0.29-1.12c0-0.52-0.13-0.96-0.4-1.37c-0.27-0.39-0.61-0.76-1.04-1.09c-0.43-0.34-0.92-0.65-1.47-0.95
			c-0.55-0.29-1.11-0.58-1.68-0.88c-0.58-0.3-1.14-0.61-1.69-0.93c-0.56-0.32-1.04-0.69-1.47-1.08c-0.43-0.39-0.78-0.84-1.04-1.33
			c-0.26-0.49-0.4-1.06-0.4-1.7c0-0.64,0.12-1.23,0.36-1.79c0.24-0.54,0.59-1.02,1.06-1.42c0.46-0.4,1.03-0.71,1.7-0.94
			c0.68-0.22,1.45-0.34,2.33-0.34c1.58,0,2.83,0.33,3.76,1c0.91,0.66,1.57,1.62,1.98,2.88l-1.45,0.66
			c-0.17-0.51-0.38-0.98-0.63-1.41c-0.26-0.42-0.58-0.79-0.94-1.09c-0.36-0.3-0.78-0.54-1.25-0.7c-0.47-0.16-1.01-0.25-1.6-0.25
			c-0.53,0-0.99,0.07-1.39,0.22c-0.4,0.15-0.72,0.34-0.98,0.58c-0.27,0.24-0.46,0.5-0.59,0.81c-0.14,0.3-0.2,0.6-0.2,0.92
			c0,0.44,0.14,0.84,0.41,1.21c0.27,0.36,0.62,0.71,1.07,1.04c0.43,0.32,0.94,0.64,1.51,0.94c0.56,0.3,1.15,0.6,1.74,0.91
			c0.59,0.31,1.16,0.64,1.74,0.97c0.57,0.33,1.07,0.7,1.51,1.1c0.43,0.4,0.79,0.84,1.07,1.32c0.28,0.47,0.41,1,0.41,1.58
			c0,0.67-0.13,1.29-0.38,1.87c-0.25,0.58-0.63,1.09-1.14,1.52c-0.5,0.44-1.13,0.78-1.87,1.03c-0.75,0.25-1.62,0.38-2.61,0.38
			c-0.8,0-1.52-0.09-2.14-0.27c-0.64-0.18-1.2-0.43-1.68-0.77c-0.49-0.34-0.9-0.75-1.24-1.24c-0.35-0.48-0.63-1.04-0.86-1.65
			l1.51-0.62c0.18,0.55,0.41,1.03,0.71,1.46c0.3,0.43,0.64,0.8,1.04,1.1c0.39,0.31,0.83,0.53,1.31,0.69
			C371.52,225.23,372.03,225.31,372.58,225.31z"/>
		<path class="st9" d="M394.83,209.26v1.08h-6.05v15.63h-2.8v-15.63h-6.06v-1.08H394.83z"/>
		<path class="st9" d="M395.82,223.72c0.2,0,0.37,0.04,0.53,0.11c0.16,0.06,0.31,0.16,0.44,0.28c0.12,0.12,0.22,0.26,0.29,0.42
			c0.07,0.16,0.11,0.34,0.11,0.52c0,0.19-0.03,0.36-0.11,0.52c-0.07,0.17-0.17,0.31-0.29,0.43c-0.13,0.12-0.27,0.21-0.44,0.28
			c-0.16,0.07-0.34,0.1-0.53,0.1c-0.19,0-0.37-0.03-0.54-0.1c-0.17-0.07-0.32-0.16-0.43-0.28c-0.12-0.12-0.23-0.26-0.3-0.43
			c-0.06-0.16-0.11-0.33-0.11-0.52c0-0.18,0.04-0.36,0.11-0.52c0.07-0.16,0.18-0.3,0.3-0.42c0.12-0.12,0.27-0.21,0.43-0.28
			C395.45,223.76,395.63,223.72,395.82,223.72z"/>
	</g>
</g>
<g>
	<path class="st10" d="M36.88,123h17.48v64.02h36.41v7.31H36.88V123z"/>
	<path class="st10" d="M126.68,158.61c0,4.61,0.7,8.69,2.11,12.23c1.4,3.53,3.26,6.51,5.58,8.91c2.32,2.4,4.99,4.22,8.02,5.46
		c3.02,1.23,6.15,1.85,9.39,1.85c2.5,0,4.83-0.43,6.98-1.3c2.16-0.87,4.17-2.03,6.06-3.49c1.88-1.45,3.64-3.14,5.28-5.06
		c1.64-1.92,3.21-3.95,4.71-6.08l7.32,5.36c-1.57,2.54-3.46,4.98-5.69,7.32c-2.22,2.34-4.72,4.4-7.49,6.21
		c-2.77,1.81-5.79,3.24-9.06,4.31c-3.27,1.07-6.73,1.6-10.37,1.6c-6.14,0-11.8-0.89-16.96-2.68c-5.16-1.79-9.62-4.32-13.37-7.59
		c-3.76-3.28-6.69-7.19-8.79-11.77c-2.1-4.57-3.16-9.66-3.16-15.28c0-3.6,0.45-7.04,1.36-10.29c0.9-3.25,2.19-6.27,3.88-9.04
		c1.69-2.77,3.75-5.27,6.19-7.49c2.43-2.22,5.18-4.12,8.24-5.69c3.05-1.57,6.4-2.77,10.04-3.61c3.64-0.83,7.5-1.25,11.57-1.25
		c4.1,0,7.87,0.48,11.29,1.43c3.42,0.95,6.53,2.29,9.31,4.01c2.79,1.72,5.27,3.77,7.47,6.14c2.18,2.37,4.11,4.96,5.78,7.76
		l-7.41,5.16c-1.5-2.14-3.13-4.15-4.89-6.04c-1.75-1.88-3.63-3.54-5.64-4.96c-2-1.42-4.1-2.54-6.31-3.38
		c-2.2-0.83-4.51-1.25-6.91-1.25c-3.28,0-6.39,0.62-9.36,1.86c-2.98,1.24-5.59,3.05-7.84,5.46c-2.25,2.4-4.04,5.37-5.36,8.91
		C127.35,149.88,126.68,153.97,126.68,158.61z"/>
	<path class="st10" d="M221.29,158.61c0,4.61,0.7,8.69,2.11,12.23c1.4,3.53,3.26,6.51,5.58,8.91c2.32,2.4,4.99,4.22,8.01,5.46
		c3.02,1.23,6.15,1.85,9.4,1.85c2.5,0,4.83-0.43,6.98-1.3c2.16-0.87,4.17-2.03,6.06-3.49c1.88-1.45,3.64-3.14,5.28-5.06
		c1.64-1.92,3.21-3.95,4.71-6.08l7.31,5.36c-1.57,2.54-3.46,4.98-5.68,7.32c-2.22,2.34-4.73,4.4-7.49,6.21
		c-2.77,1.81-5.79,3.24-9.06,4.31c-3.28,1.07-6.73,1.6-10.37,1.6c-6.15,0-11.79-0.89-16.95-2.68c-5.16-1.79-9.62-4.32-13.38-7.59
		c-3.76-3.28-6.68-7.19-8.79-11.77c-2.11-4.57-3.16-9.66-3.16-15.28c0-3.6,0.45-7.04,1.35-10.29c0.9-3.25,2.19-6.27,3.88-9.04
		c1.69-2.77,3.75-5.27,6.19-7.49c2.43-2.22,5.18-4.12,8.24-5.69c3.05-1.57,6.4-2.77,10.04-3.61c3.64-0.83,7.5-1.25,11.57-1.25
		c4.11,0,7.87,0.48,11.29,1.43c3.42,0.95,6.53,2.29,9.32,4.01c2.78,1.72,5.27,3.77,7.46,6.14c2.19,2.37,4.12,4.96,5.79,7.76
		l-7.41,5.16c-1.5-2.14-3.13-4.15-4.88-6.04c-1.75-1.88-3.63-3.54-5.64-4.96c-2-1.42-4.11-2.54-6.32-3.38
		c-2.21-0.83-4.51-1.25-6.91-1.25c-3.28,0-6.4,0.62-9.37,1.86c-2.98,1.24-5.59,3.05-7.84,5.46c-2.26,2.4-4.05,5.37-5.37,8.91
		C221.95,149.88,221.29,153.97,221.29,158.61z"/>
</g>
<g>
	<g>
		<path class="st9" d="M58.49,255.77H44.01c-1.95,0-3.49-0.34-4.64-1.02c-1.45-0.85-2.17-2.18-2.17-3.99c0-0.95,0.22-1.91,0.64-2.88
			c0.15-0.35,0.52-1.02,1.09-2.02l0.46,0.29c-0.23,0.46-0.44,0.93-0.65,1.4c-0.3,0.72-0.44,1.36-0.44,1.92
			c0,1.2,0.63,2.12,1.88,2.78c1.12,0.59,2.55,0.88,4.26,0.88h12.85v-0.41c0-1.13-0.14-2.05-0.4-2.77c-0.28-0.71-0.75-1.32-1.4-1.82
			l1.17-2.47c0.45,0.56,0.72,0.9,0.8,1.04c0.69,1.14,1.04,2.79,1.04,4.95V255.77z M47.86,243.35l-1.15,2.2l-2.46-1.27l1.12-2.2
			L47.86,243.35z M51.35,241.99l-1.18,2.18l-2.46-1.3l1.14-2.17L51.35,241.99z"/>
		<path class="st9" d="M74.24,239.73l-0.73,2.73l-0.89-0.44l0.03,1.37c0,1.36-0.17,2.67-0.52,3.95c-0.37,1.4-0.96,2.78-1.78,4.14
			c0.38,0.71,0.65,1.27,0.81,1.67c0.23,0.64,0.35,1.28,0.35,1.94c0,0.38-0.01,0.69-0.03,0.96c-0.02,0.27-0.07,0.57-0.14,0.93
			c-1.08,0.25-2.22,0.43-3.44,0.57c-1.22,0.14-2.41,0.2-3.56,0.2c0.01-0.18,0.01-0.36,0.01-0.48c0.05-0.77,0.18-1.48,0.36-2.14
			c1.72-0.92,3.17-2.12,4.36-3.58c-0.71-1.34-1.23-2.29-1.55-2.84c-0.35-0.61-0.96-1.55-1.81-2.83c-0.3-0.43-0.59-0.78-0.83-1.05
			c-0.33-0.35-0.6-0.53-0.79-0.53c-0.13,0-0.35,0.08-0.65,0.23c-0.17,0.08-0.3,0.12-0.41,0.12c-0.22,0-0.58-0.23-1.05-0.67
			c-0.41-0.4-0.85-0.88-1.3-1.46c-0.37-0.47-0.61-0.86-0.74-1.16c-0.13-0.31-0.2-0.68-0.2-1.12c0-0.63,0.04-1.12,0.12-1.48
			c0.12-0.53,0.33-0.8,0.62-0.8c0.41,0,1.02,0.39,1.81,1.18c0.69,0.71,1.47,1.64,2.33,2.79c0.76,1.02,1.51,2.12,2.25,3.31l1.55,2.49
			c0.46,0.75,0.92,1.6,1.4,2.55c0.68-1.37,1.14-2.74,1.4-4.14c0.22-1.22,0.33-2.76,0.33-4.64l-0.87-0.5c0-0.67,0.06-1.27,0.18-1.82
			c0.11-0.54,0.28-1.03,0.49-1.48l0.35,0.09c0.04,0.44,0.29,0.78,0.73,1.05c0.24,0.14,0.56,0.3,0.93,0.49
			C73.75,239.51,74.04,239.65,74.24,239.73z M70.29,254.49c0-0.22-0.04-0.45-0.13-0.68c-0.08-0.25-0.27-0.63-0.57-1.18
			c-0.3,0.4-0.75,0.85-1.36,1.36c-0.6,0.52-1.2,0.96-1.79,1.33c1.2,0,2.05-0.04,2.55-0.11C69.86,255.09,70.29,254.84,70.29,254.49z"
			/>
		<path class="st9" d="M88.82,254.85c0,1.67-0.62,3.34-1.85,4.98c-1.38,1.84-2.96,2.76-4.77,2.76c-0.67,0-1.35-0.08-2.06-0.23
			c-0.52-0.11-1.19-0.31-2.02-0.58c-0.66-0.23-1.32-0.46-1.97-0.68l0.25-0.53c0.57,0.13,1.17,0.28,1.79,0.42
			c0.62,0.14,1.18,0.22,1.68,0.22c1.23,0,2.41-0.31,3.5-0.94c0.87-0.49,1.72-1.21,2.58-2.16c0.43-0.47,1.05-1.24,1.85-2.32
			c-1.36,0-2.39-0.22-3.07-0.65c-0.77-0.49-1.15-1.31-1.15-2.44c0-1.04,0.24-2.01,0.72-2.9c0.57-1.03,1.29-1.55,2.16-1.55
			c0.88,0,1.51,0.51,1.9,1.53c0.3,0.8,0.45,1.91,0.45,3.33V254.85z M87.87,253.21c-0.22-0.98-0.5-1.65-0.81-2.02
			c-0.27-0.32-0.61-0.49-1-0.49c-0.29,0-0.53,0.1-0.73,0.28c-0.21,0.19-0.31,0.43-0.31,0.71c0,0.49,0.23,0.87,0.67,1.13
			C86.13,253.08,86.85,253.21,87.87,253.21z"/>
		<path class="st9" d="M108.38,255.77H93.83c-0.69,0-1.24-0.28-1.65-0.83c-0.36-0.48-0.64-1.21-0.83-2.17
			c-0.19-0.96-0.33-2.14-0.44-3.56c-0.05-1.14-0.12-2.32-0.18-3.52c-0.07-1.21-0.15-2.12-0.26-2.74c-0.11-0.62-0.25-1.13-0.43-1.52
			c-0.22-0.49-0.53-0.92-0.92-1.28l1.87-2.94c0.39,1.21,0.67,2.67,0.83,4.35c0.1,1.05,0.2,3.55,0.31,7.47
			c0.18,1.8,0.44,2.96,0.79,3.46c0.28,0.43,0.59,0.64,0.92,0.64h14.55V255.77z"/>
		<path class="st9" d="M116.54,255.77H94.89v-2.64h17.63c0.62,0,1.16-0.02,1.6-0.06c0.44-0.05,0.92-0.15,1.43-0.3
			c-1.74-0.25-2.87-0.49-3.38-0.71c-1.17-0.51-1.74-1.37-1.74-2.59c0-1.06,0.28-2.06,0.84-3c0.62-1.06,1.39-1.59,2.29-1.59
			c1.03,0,1.81,0.66,2.35,1.97c0.43,1.04,0.64,2.27,0.64,3.69V255.77z M112.41,239.77l-1.2,2.07l-1.86-1.23l1.26-2.03L112.41,239.77
			z M115.18,250.47c-0.24-0.81-0.46-1.42-0.67-1.8c-0.41-0.76-0.91-1.14-1.5-1.14c-0.28,0-0.52,0.11-0.73,0.33
			c-0.21,0.23-0.31,0.49-0.31,0.79c0,0.77,0.4,1.28,1.2,1.54C113.46,250.29,114.12,250.38,115.18,250.47z M115.89,238.86l-1.29,2.03
			l-1.89-1.24l1.3-2.02L115.89,238.86z"/>
		<path class="st9" d="M128.79,255.77h-1.58c-0.68,0-1.44-0.15-2.29-0.45c-0.97-0.36-1.84-0.84-2.59-1.46
			c-0.59,0.72-1.18,1.22-1.8,1.5c-0.61,0.28-1.5,0.41-2.68,0.41h-2.37v-2.64h2.32c0.92,0,1.74-0.24,2.46-0.69
			c0.55-0.36,1.06-0.88,1.51-1.53c0.62-0.89,1.37-1.67,2.28-2.33c0.81-0.58,1.56-0.96,2.23-1.12c0.7,1.07,1.26,2.02,1.67,2.88
			c0.56,1.15,0.83,2.08,0.83,2.8V255.77z M127.04,252.78c-0.13-0.58-0.34-1.16-0.61-1.73c-0.23-0.48-0.54-0.97-0.93-1.48
			c-0.49,0.12-0.89,0.35-1.23,0.69c-0.22,0.21-0.49,0.57-0.78,1.07c0.36,0.4,0.87,0.75,1.54,1.07c0.66,0.31,1.29,0.51,1.87,0.57
			L127.04,252.78z"/>
		<path class="st9" d="M135.22,255.77h-7.49v-2.64h5.96l-1.8-12.87l-0.79-0.38c0-0.69,0.06-1.35,0.19-1.96
			c0.12-0.61,0.3-1.2,0.55-1.79l0.23,0.17c0,0.59,0.32,1.03,0.98,1.32c0.51,0.2,1.02,0.41,1.53,0.61c0,0.5-0.04,1.04-0.12,1.62
			c-0.08,0.57-0.18,1-0.29,1.28l-0.73-0.24l1.79,11.9V255.77z"/>
		<path class="st9" d="M141.65,255.77h-7.49v-2.64h5.96l-1.8-12.87l-0.79-0.38c0-0.69,0.06-1.35,0.18-1.96
			c0.12-0.61,0.3-1.2,0.54-1.79l0.23,0.17c0,0.59,0.33,1.03,0.98,1.32c0.51,0.2,1.02,0.41,1.53,0.61c0,0.5-0.04,1.04-0.12,1.62
			c-0.09,0.57-0.18,1-0.29,1.28l-0.73-0.24l1.79,11.9V255.77z"/>
		<path class="st9" d="M153.9,242.96l-1.16,2.2l-2.45-1.27l1.12-2.21L153.9,242.96z M158.73,251.29c0,1.42-0.23,2.49-0.7,3.21
			c-0.72,1.12-2.03,1.67-3.94,1.67c-0.74,0-1.35-0.15-1.84-0.44c-0.56-0.33-0.83-0.81-0.83-1.42c0-0.71,0.18-1.52,0.53-2.46
			c0.33-0.78,0.65-1.58,0.99-2.38l-0.23-0.05l0.93-2.57c1.83,0.96,2.92,1.56,3.28,1.82C158.12,249.52,158.73,250.39,158.73,251.29z
			 M157.41,252.47c0-0.38-0.56-0.89-1.67-1.53c-0.47-0.27-0.98-0.54-1.52-0.8c-0.46,0.5-0.73,0.8-0.82,0.93
			c-0.28,0.39-0.42,0.77-0.42,1.12c0,0.52,0.14,0.91,0.43,1.2c0.29,0.29,0.68,0.44,1.16,0.44c0.57,0,1.18-0.16,1.85-0.48
			C157.08,253.03,157.41,252.74,157.41,252.47z M157.39,241.59l-1.18,2.19l-2.46-1.31l1.14-2.17L157.39,241.59z"/>
		<path class="st9" d="M169.55,255.77h-6.8c-0.58,0-1.1-0.17-1.56-0.5c-0.46-0.33-0.69-0.72-0.69-1.18c0-0.39,0.02-0.73,0.06-1.05
			c0.04-0.32,0.12-0.66,0.23-1.03h0.35c0.11,0.41,0.31,0.71,0.61,0.89c0.24,0.15,0.57,0.23,1,0.23h5.87c0-1.81-0.25-3.27-0.76-4.37
			c-0.63-1.37-1.68-2.29-3.14-2.74l0.23-2.95c1.75,0.86,2.99,2.23,3.72,4.12c0.58,1.52,0.88,3.5,0.88,5.94V255.77z"/>
		<path class="st9" d="M191.71,255.77h-23.22v-2.64h22.11c0-1.2-0.14-2.1-0.43-2.73c-0.19-0.44-0.67-1.07-1.43-1.88l1.19-2.48
			c0.73,0.92,1.18,1.64,1.36,2.16c0.28,0.78,0.41,2.08,0.41,3.88V255.77z M190.07,241.93c0,0.25-0.16,0.48-0.47,0.68
			c-0.21,0.13-0.53,0.28-0.96,0.42l-2.82,0.98c0-0.47,0.5-0.88,1.52-1.23c-0.32-0.17-0.55-0.32-0.71-0.48
			c-0.21-0.2-0.32-0.4-0.32-0.61c0-0.31,0.27-0.75,0.8-1.32c0.6-0.63,1.13-0.94,1.58-0.94c0.2,0,0.37,0.06,0.53,0.2
			c0.15,0.14,0.22,0.31,0.22,0.54c0,0.14-0.03,0.29-0.09,0.44c-0.06,0.15-0.14,0.31-0.26,0.49c-0.31-0.29-0.65-0.43-1.02-0.43
			c-0.22,0-0.44,0.05-0.66,0.14c-0.22,0.09-0.33,0.19-0.33,0.31c0,0.15,0.24,0.36,0.71,0.62c0.47,0.27,0.87,0.4,1.21,0.4
			c0.22,0,0.38,0,0.47-0.02C189.56,242.12,189.76,242.05,190.07,241.93z"/>
		<path class="st9" d="M196.84,251.9c0,0.81-0.14,1.59-0.44,2.35c-0.16,0.4-0.48,1.05-0.99,1.93l-0.27-0.16
			c0.03-0.29,0.06-0.63,0.09-1.02c0.02-0.38,0.04-0.63,0.04-0.77c0-1.05-0.08-2.52-0.25-4.41c-0.17-1.88-0.37-3.85-0.6-5.91
			c-0.14-1.24-0.3-2.51-0.47-3.8c0.2-0.44,0.43-0.93,0.69-1.45c0.26-0.52,0.51-1,0.74-1.45c0.16,1.15,0.37,2.73,0.61,4.73
			c0.24,2,0.44,3.81,0.58,5.42C196.75,249.36,196.84,250.87,196.84,251.9z"/>
		<path class="st9" d="M213.33,255.77c0,1.11-0.48,2.27-1.43,3.46c-0.83,1.05-1.86,1.95-3.09,2.71c-1.18,0.73-2.14,1.09-2.9,1.09
			c-0.7,0-1.45-0.09-2.26-0.3c-0.61-0.15-1.35-0.4-2.21-0.71c-0.73-0.27-1.45-0.55-2.17-0.82l0.26-0.61
			c0.66,0.13,1.36,0.27,2.08,0.4c0.72,0.14,1.38,0.2,1.97,0.2c1.29,0,2.64-0.41,4.05-1.24c1.27-0.76,2.36-1.72,3.26-2.88
			c0.9-1.16,1.35-2.2,1.35-3.13c0-0.8-0.23-1.64-0.7-2.52c-0.37-0.71-0.9-1.44-1.58-2.19l0.87-2.38c0.83,0.77,1.44,1.53,1.83,2.31
			c0.45,0.86,0.67,1.84,0.67,2.91V255.77z"/>
		<path class="st9" d="M219.77,255.77h-7.5v-2.64h5.96l-1.81-12.87l-0.79-0.38c0-0.69,0.06-1.35,0.18-1.96
			c0.12-0.61,0.3-1.2,0.55-1.79l0.23,0.17c0,0.59,0.33,1.03,0.98,1.32c0.51,0.2,1.02,0.41,1.53,0.61c0,0.5-0.04,1.04-0.12,1.62
			c-0.08,0.57-0.18,1-0.29,1.28l-0.73-0.24l1.79,11.9V255.77z"/>
		<path class="st9" d="M224.89,251.9c0,0.81-0.15,1.59-0.44,2.35c-0.15,0.4-0.48,1.05-0.99,1.93l-0.27-0.16
			c0.03-0.29,0.06-0.63,0.08-1.02c0.02-0.38,0.03-0.63,0.03-0.77c0-1.05-0.08-2.52-0.25-4.41c-0.16-1.88-0.37-3.85-0.6-5.91
			c-0.14-1.24-0.3-2.51-0.47-3.8c0.2-0.44,0.43-0.93,0.69-1.45c0.26-0.52,0.51-1,0.73-1.45c0.17,1.15,0.37,2.73,0.62,4.73
			c0.25,2,0.44,3.81,0.58,5.42C224.81,249.36,224.89,250.87,224.89,251.9z"/>
		<path class="st9" d="M251.18,255.77c0,2.26-0.66,3.92-1.99,4.98c-1.43,1.14-3.73,1.71-6.91,1.71c-2.03,0-3.57-0.35-4.64-1.06
			c-1.17-0.78-1.76-1.98-1.76-3.59c0-0.87,0.1-1.75,0.31-2.64c0.22-0.89,0.5-1.79,0.87-2.69c0.23-0.54,0.61-1.38,1.15-2.52
			l0.61,0.27c-0.71,1.46-1.18,2.61-1.41,3.45c-0.22,0.84-0.34,1.61-0.34,2.3c0,1.26,0.45,2.21,1.34,2.87
			c0.9,0.65,2.17,0.98,3.83,0.98c1.91,0,3.61-0.34,5.09-1.02c1.83-0.84,2.75-2.01,2.75-3.52c0-1.03-0.16-2-0.46-2.88
			c-0.26-0.79-0.64-1.48-1.12-2.07l1.26-3.11c0.53,0.82,0.9,1.66,1.11,2.5c0.2,0.85,0.3,1.98,0.3,3.38V255.77z M245.54,244.13
			l-1.14,2.16l-2.37-1.3l1.09-2.11L245.54,244.13z"/>
		<path class="st9" d="M261.67,255.77h-6.8c-0.58,0-1.1-0.17-1.56-0.5c-0.46-0.33-0.69-0.72-0.69-1.18c0-0.39,0.02-0.73,0.06-1.05
			c0.04-0.32,0.11-0.66,0.23-1.03h0.35c0.11,0.41,0.31,0.71,0.61,0.89c0.24,0.15,0.58,0.23,1,0.23h5.87c0-1.81-0.25-3.27-0.76-4.37
			c-0.62-1.37-1.67-2.29-3.14-2.74l0.22-2.95c1.75,0.86,2.99,2.23,3.72,4.12c0.59,1.52,0.88,3.5,0.88,5.94V255.77z"/>
		<path class="st9" d="M289.29,255.77h-1.57c-0.68,0-1.45-0.15-2.3-0.45c-0.98-0.36-1.85-0.84-2.6-1.46
			c-0.59,0.72-1.19,1.22-1.8,1.5c-0.61,0.28-1.51,0.41-2.68,0.41H260.6v-2.64h17.7c0.92,0,1.74-0.24,2.46-0.69
			c0.56-0.36,1.06-0.88,1.52-1.53c0.62-0.89,1.37-1.67,2.27-2.33c0.81-0.58,1.55-0.96,2.23-1.12c0.7,1.07,1.25,2.02,1.67,2.88
			c0.56,1.15,0.83,2.08,0.83,2.8V255.77z M287.54,252.78c-0.13-0.58-0.33-1.16-0.61-1.73c-0.23-0.48-0.55-0.97-0.93-1.48
			c-0.48,0.12-0.89,0.35-1.22,0.69c-0.22,0.21-0.49,0.57-0.79,1.07c0.37,0.4,0.87,0.75,1.54,1.07c0.66,0.31,1.28,0.51,1.87,0.57
			L287.54,252.78z"/>
		<path class="st9" d="M295.72,255.77h-7.5v-2.64h5.96l-1.81-12.87l-0.79-0.38c0-0.69,0.06-1.35,0.18-1.96
			c0.13-0.61,0.3-1.2,0.55-1.79l0.23,0.17c0,0.59,0.32,1.03,0.98,1.32c0.51,0.2,1.02,0.41,1.53,0.61c0,0.5-0.04,1.04-0.12,1.62
			c-0.08,0.57-0.18,1-0.29,1.28l-0.73-0.24l1.79,11.9V255.77z"/>
		<path class="st9" d="M300.85,251.9c0,0.81-0.15,1.59-0.44,2.35c-0.16,0.4-0.48,1.05-0.99,1.93l-0.27-0.16
			c0.03-0.29,0.06-0.63,0.09-1.02c0.02-0.38,0.03-0.63,0.03-0.77c0-1.05-0.08-2.52-0.25-4.41c-0.17-1.88-0.37-3.85-0.6-5.91
			c-0.14-1.24-0.3-2.51-0.47-3.8c0.2-0.44,0.43-0.93,0.69-1.45c0.26-0.52,0.5-1,0.73-1.45c0.16,1.15,0.37,2.73,0.61,4.73
			c0.25,2,0.44,3.81,0.58,5.42C300.76,249.36,300.85,250.87,300.85,251.9z"/>
		<path class="st9" d="M322.44,255.77h-2.17c-0.73,0-1.37-0.62-1.93-1.87c-0.41-0.93-0.75-2.13-1-3.59c-0.3,0.56-0.68,1-1.15,1.31
			c-0.46,0.31-0.95,0.47-1.47,0.47c-1.16,0-2.13-0.08-2.91-0.24c-0.77-0.15-1.16-0.35-1.16-0.6c0-0.87,0.57-1.83,1.7-2.89
			c1.14-1.06,2.56-1.98,4.25-2.77c-0.02-0.08-0.06-0.29-0.13-0.64c-0.06-0.34-0.1-0.56-0.1-0.64c0-0.34,0.12-0.73,0.35-1.16
			c0.19-0.34,0.44-0.69,0.76-1.06c0.1,0.62,0.21,1.24,0.31,1.82c0.11,0.59,0.23,1.2,0.37,1.83l0.46,2.61
			c0.25,1.44,0.48,2.5,0.68,3.19c0.32,1.05,0.64,1.57,0.97,1.57h2.17V255.77z M315.12,239l-1.16,2.2l-2.46-1.28l1.12-2.19
			L315.12,239z M317.15,248.98l-0.29-1.66c-0.88,0.31-1.57,0.64-2.08,0.98c-0.51,0.34-0.93,0.79-1.27,1.35
			c0.21,0.09,0.46,0.16,0.74,0.21c0.28,0.05,0.67,0.08,1.17,0.08C316.03,249.95,316.6,249.62,317.15,248.98z M318.61,237.63
			l-1.19,2.19l-2.46-1.31l1.14-2.16L318.61,237.63z"/>
		<path class="st9" d="M346.34,255.77h-1.17c-0.65,0-1.21-0.09-1.67-0.27c-0.46-0.18-0.89-0.42-1.27-0.75
			c-0.48,0.38-0.89,0.62-1.25,0.74c-0.52,0.19-1.22,0.28-2.13,0.28h-0.98c-0.53,0-1.06-0.1-1.58-0.3c-0.35-0.13-0.77-0.35-1.28-0.65
			c-0.48,0.36-0.93,0.61-1.34,0.75c-0.4,0.13-1.06,0.2-1.97,0.2h-10.33v-2.64h10.33c0.82,0,1.41-0.07,1.76-0.21
			c0.58-0.23,0.88-0.7,0.88-1.4c0-0.29-0.01-0.59-0.05-0.88c-0.03-0.29-0.08-0.62-0.17-0.98l0.63-0.91c0.28,0.93,0.51,1.61,0.7,2.03
			c0.32,0.73,0.67,1.29,1.06,1.67c0.46,0.45,1.02,0.68,1.67,0.68h1.02c0.76,0,1.32-0.11,1.69-0.35c0.4-0.27,0.61-0.68,0.61-1.26
			c0-0.32-0.02-0.61-0.06-0.91c-0.04-0.29-0.1-0.61-0.17-0.95l0.64-0.91l0.32,1.43c0.27,1.12,0.61,1.9,0.99,2.33
			c0.34,0.39,0.81,0.58,1.4,0.58c0.28,0,0.49-0.09,0.66-0.26c0.17-0.16,0.25-0.38,0.25-0.64c0-0.57-0.21-1.16-0.62-1.79
			c-0.07-0.1-0.32-0.43-0.74-0.98l0.98-1.66c0.41,0.63,0.7,1.17,0.85,1.62c0.22,0.69,0.33,1.61,0.33,2.75V255.77z"/>
		<path class="st9" d="M375.42,255.77h-1.17c-0.64,0-1.2-0.09-1.67-0.27c-0.46-0.18-0.89-0.42-1.27-0.75
			c-0.48,0.38-0.89,0.62-1.24,0.74c-0.52,0.19-1.23,0.28-2.13,0.28h-0.98c-0.53,0-1.05-0.1-1.58-0.3c-0.35-0.13-0.77-0.35-1.28-0.65
			c-0.49,0.36-0.93,0.61-1.34,0.75c-0.4,0.13-6.51,0.2-7.43,0.2h-10.06v-2.64h10.06c0.82,0,6.86-0.07,7.21-0.21
			c0.58-0.23,0.88-0.7,0.88-1.4c0-0.29-0.01-0.59-0.05-0.88c-0.03-0.29-0.08-0.62-0.17-0.98l0.62-0.91
			c0.29,0.93,0.52,1.61,0.69,2.03c0.33,0.73,0.68,1.29,1.07,1.67c0.46,0.45,1.02,0.68,1.67,0.68h1.02c0.76,0,1.32-0.11,1.69-0.35
			c0.4-0.27,0.61-0.68,0.61-1.26c0-0.32-0.02-0.61-0.06-0.91c-0.04-0.29-0.1-0.61-0.17-0.95l0.63-0.91l0.32,1.43
			c0.28,1.12,0.61,1.9,1,2.33c0.34,0.39,0.81,0.58,1.4,0.58c0.27,0,0.49-0.09,0.66-0.26c0.17-0.16,0.25-0.38,0.25-0.64
			c0-0.57-0.21-1.16-0.62-1.79c-0.07-0.1-0.32-0.43-0.75-0.98l0.99-1.66c0.41,0.63,0.69,1.17,0.85,1.62
			c0.22,0.69,0.33,1.61,0.33,2.75V255.77z"/>
		<path class="st9" d="M388.85,254.85c0,1.67-0.61,3.34-1.85,4.98c-1.38,1.84-2.97,2.76-4.77,2.76c-0.67,0-1.35-0.08-2.06-0.23
			c-0.52-0.11-1.19-0.31-2.02-0.58c-0.66-0.23-1.32-0.46-1.97-0.68l0.25-0.53c0.57,0.13,1.17,0.28,1.79,0.42
			c0.62,0.14,1.18,0.22,1.68,0.22c1.23,0,2.39-0.31,3.5-0.94c0.86-0.49,1.72-1.21,2.58-2.16c0.43-0.47,1.05-1.24,1.85-2.32
			c-1.37,0-2.39-0.22-3.06-0.65c-0.77-0.49-1.16-1.31-1.16-2.44c0-1.04,0.24-2.01,0.73-2.9c0.57-1.03,1.29-1.55,2.16-1.55
			c0.88,0,1.51,0.51,1.9,1.53c0.3,0.8,0.45,1.91,0.45,3.33V254.85z M385.2,245.44c0,0.26-0.15,0.49-0.47,0.69
			c-0.21,0.13-0.53,0.28-0.95,0.43l-2.83,0.97c0-0.47,0.51-0.88,1.52-1.23c-0.31-0.16-0.55-0.32-0.71-0.47
			c-0.21-0.2-0.32-0.4-0.32-0.61c0-0.31,0.27-0.75,0.8-1.33c0.6-0.62,1.12-0.93,1.58-0.93c0.2,0,0.37,0.06,0.52,0.2
			c0.15,0.14,0.22,0.32,0.22,0.54c0,0.14-0.03,0.28-0.09,0.44c-0.06,0.14-0.15,0.3-0.26,0.49c-0.32-0.28-0.66-0.43-1.02-0.43
			c-0.22,0-0.44,0.05-0.66,0.14c-0.22,0.09-0.32,0.2-0.32,0.32c0,0.15,0.23,0.36,0.7,0.61c0.47,0.27,0.87,0.4,1.21,0.4
			c0.22,0,0.38-0.01,0.48-0.01C384.71,245.64,384.9,245.57,385.2,245.44z M387.89,253.21c-0.22-0.98-0.49-1.65-0.8-2.02
			c-0.28-0.32-0.61-0.49-1-0.49c-0.28,0-0.53,0.1-0.73,0.28c-0.21,0.19-0.31,0.43-0.31,0.71c0,0.49,0.22,0.87,0.67,1.13
			C386.15,253.08,386.88,253.21,387.89,253.21z"/>
		<path class="st9" d="M401.1,255.77h-1.58c-0.67,0-1.44-0.15-2.29-0.45c-0.98-0.36-1.84-0.84-2.6-1.46
			c-0.58,0.72-1.18,1.22-1.79,1.5c-0.61,0.28-1.51,0.41-2.68,0.41h-2.37v-2.64h2.32c0.92,0,1.74-0.24,2.46-0.69
			c0.56-0.36,1.07-0.88,1.52-1.53c0.62-0.89,1.38-1.67,2.28-2.33c0.81-0.58,1.55-0.96,2.23-1.12c0.7,1.07,1.25,2.02,1.67,2.88
			c0.56,1.15,0.84,2.08,0.84,2.8V255.77z M399.35,252.78c-0.13-0.58-0.33-1.16-0.61-1.73c-0.24-0.48-0.54-0.97-0.92-1.48
			c-0.49,0.12-0.9,0.35-1.23,0.69c-0.22,0.21-0.48,0.57-0.79,1.07c0.36,0.4,0.87,0.75,1.53,1.07c0.67,0.31,1.29,0.51,1.88,0.57
			L399.35,252.78z"/>
	</g>
</g>
<g>
	<defs>
		<polygon id="SVGID_2_" points="464.36,226.3 298.21,151.89 298.21,9.05 464.36,9.05 		"/>
	</defs>
	<clipPath id="SVGID_3_">
		<use xlink:href="#SVGID_2_"  style="overflow:visible;"/>
	</clipPath>
	<polyline style="clip-path:url(#SVGID_3_);fill:none;stroke:#1D1D1B;stroke-width:1.1055;stroke-miterlimit:10;" points="
		419.13,133.55 424.82,133.55 424.82,236.02 	"/>
	
		<line style="clip-path:url(#SVGID_3_);fill:#FFFFFF;stroke:#1D1D1B;stroke-width:1.1055;stroke-miterlimit:10;" x1="410.06" y1="133.55" x2="412.63" y2="133.55"/>
	<polyline style="clip-path:url(#SVGID_3_);fill:none;stroke:#1D1D1B;stroke-width:1.1055;stroke-miterlimit:10;" points="
		395.05,200.86 395.05,133.55 403.37,133.55 	"/>
	<g class="st2">
		<rect x="392.73" y="129.72" class="st8" width="2.53" height="40.63"/>
		<polygon class="st8" points="386.12,98.81 386.12,84.56 379.76,84.56 379.76,55.58 375.62,55.58 375.62,36.63 371.21,36.63 
			371.21,18.99 370.42,18.99 370.42,36.63 366.01,36.63 366.01,55.58 361.88,55.58 361.88,84.56 355.51,84.56 355.51,129.72 
			352.47,129.72 352.47,170.35 364.83,170.35 364.83,69.05 		"/>
	</g>
	<polygon style="clip-path:url(#SVGID_3_);fill:#1D1D1B;" points="393.36,218.28 392.1,218.28 392.1,108.25 365.47,71.04 
		365.47,191.47 364.2,191.47 364.2,67.07 393.36,107.84 	"/>
	<rect x="370.32" y="110.79" style="clip-path:url(#SVGID_3_);fill:#1D1D1B;" width="2.45" height="3.89"/>
	<rect x="374.77" y="110.79" style="clip-path:url(#SVGID_3_);fill:#1D1D1B;" width="2.45" height="3.89"/>
	<rect x="379.22" y="110.79" style="clip-path:url(#SVGID_3_);fill:#1D1D1B;" width="2.45" height="3.89"/>
	<rect x="383.67" y="110.79" style="clip-path:url(#SVGID_3_);fill:#1D1D1B;" width="2.45" height="3.89"/>
	<rect x="370.32" y="117.3" style="clip-path:url(#SVGID_3_);fill:#1D1D1B;" width="2.45" height="3.89"/>
	<rect x="374.77" y="117.3" style="clip-path:url(#SVGID_3_);fill:#1D1D1B;" width="2.45" height="3.89"/>
	<rect x="379.22" y="117.3" style="clip-path:url(#SVGID_3_);fill:#1D1D1B;" width="2.45" height="3.89"/>
	<rect x="383.67" y="117.3" style="clip-path:url(#SVGID_3_);fill:#1D1D1B;" width="2.45" height="3.89"/>
	<rect x="370.32" y="123.81" style="clip-path:url(#SVGID_3_);fill:#1D1D1B;" width="2.45" height="3.9"/>
	<rect x="374.77" y="123.81" style="clip-path:url(#SVGID_3_);fill:#1D1D1B;" width="2.45" height="3.9"/>
	<rect x="379.22" y="123.81" style="clip-path:url(#SVGID_3_);fill:#1D1D1B;" width="2.45" height="3.9"/>
	<rect x="383.67" y="123.81" style="clip-path:url(#SVGID_3_);fill:#1D1D1B;" width="2.45" height="3.9"/>
	<rect x="370.32" y="130.32" style="clip-path:url(#SVGID_3_);fill:#1D1D1B;" width="2.45" height="3.89"/>
	<rect x="374.77" y="130.32" style="clip-path:url(#SVGID_3_);fill:#1D1D1B;" width="2.45" height="3.89"/>
	<rect x="379.22" y="130.32" style="clip-path:url(#SVGID_3_);fill:#1D1D1B;" width="2.45" height="3.89"/>
	<rect x="383.67" y="130.32" style="clip-path:url(#SVGID_3_);fill:#1D1D1B;" width="2.45" height="3.89"/>
	<rect x="370.32" y="136.83" style="clip-path:url(#SVGID_3_);fill:#1D1D1B;" width="2.45" height="3.9"/>
	<rect x="374.77" y="136.83" style="clip-path:url(#SVGID_3_);fill:#1D1D1B;" width="2.45" height="3.9"/>
	<rect x="379.22" y="136.83" style="clip-path:url(#SVGID_3_);fill:#1D1D1B;" width="2.45" height="3.9"/>
	<rect x="383.67" y="136.83" style="clip-path:url(#SVGID_3_);fill:#1D1D1B;" width="2.45" height="3.9"/>
	<rect x="370.32" y="143.34" style="clip-path:url(#SVGID_3_);fill:#1D1D1B;" width="2.45" height="3.89"/>
	<rect x="374.77" y="143.34" style="clip-path:url(#SVGID_3_);fill:#1D1D1B;" width="2.45" height="3.89"/>
	<rect x="379.22" y="143.34" style="clip-path:url(#SVGID_3_);fill:#1D1D1B;" width="2.45" height="3.89"/>
	<rect x="383.67" y="143.34" style="clip-path:url(#SVGID_3_);fill:#1D1D1B;" width="2.45" height="3.89"/>
	<rect x="370.32" y="149.85" style="clip-path:url(#SVGID_3_);fill:#1D1D1B;" width="2.45" height="3.89"/>
	<rect x="374.77" y="149.85" style="clip-path:url(#SVGID_3_);fill:#1D1D1B;" width="2.45" height="3.89"/>
	<rect x="379.22" y="149.85" style="clip-path:url(#SVGID_3_);fill:#1D1D1B;" width="2.45" height="3.89"/>
	<rect x="383.67" y="149.85" style="clip-path:url(#SVGID_3_);fill:#1D1D1B;" width="2.45" height="3.89"/>
	<rect x="370.32" y="156.36" style="clip-path:url(#SVGID_3_);fill:#1D1D1B;" width="2.45" height="3.89"/>
	<rect x="374.77" y="156.36" style="clip-path:url(#SVGID_3_);fill:#1D1D1B;" width="2.45" height="3.89"/>
	<rect x="379.22" y="156.36" style="clip-path:url(#SVGID_3_);fill:#1D1D1B;" width="2.45" height="3.89"/>
	<rect x="383.67" y="156.36" style="clip-path:url(#SVGID_3_);fill:#1D1D1B;" width="2.45" height="3.89"/>
	<rect x="370.32" y="162.87" style="clip-path:url(#SVGID_3_);fill:#1D1D1B;" width="2.45" height="3.9"/>
	<rect x="374.77" y="162.87" style="clip-path:url(#SVGID_3_);fill:#1D1D1B;" width="2.45" height="3.9"/>
	<rect x="379.22" y="162.87" style="clip-path:url(#SVGID_3_);fill:#1D1D1B;" width="2.45" height="3.9"/>
	<rect x="383.67" y="162.87" style="clip-path:url(#SVGID_3_);fill:#1D1D1B;" width="2.45" height="3.9"/>
	<rect x="370.32" y="169.38" style="clip-path:url(#SVGID_3_);fill:#1D1D1B;" width="2.45" height="3.89"/>
	<rect x="374.77" y="169.38" style="clip-path:url(#SVGID_3_);fill:#1D1D1B;" width="2.45" height="3.89"/>
	<rect x="379.22" y="169.38" style="clip-path:url(#SVGID_3_);fill:#1D1D1B;" width="2.45" height="3.89"/>
	<rect x="383.67" y="169.38" style="clip-path:url(#SVGID_3_);fill:#1D1D1B;" width="2.45" height="3.89"/>
	<rect x="370.32" y="175.89" style="clip-path:url(#SVGID_3_);fill:#1D1D1B;" width="2.45" height="3.89"/>
	<rect x="374.77" y="175.89" style="clip-path:url(#SVGID_3_);fill:#1D1D1B;" width="2.45" height="3.89"/>
	<rect x="379.22" y="175.89" style="clip-path:url(#SVGID_3_);fill:#1D1D1B;" width="2.45" height="3.89"/>
	<rect x="383.67" y="175.89" style="clip-path:url(#SVGID_3_);fill:#1D1D1B;" width="2.45" height="3.89"/>
	<rect x="370.32" y="182.4" style="clip-path:url(#SVGID_3_);fill:#1D1D1B;" width="2.45" height="3.89"/>
	<rect x="374.77" y="182.4" style="clip-path:url(#SVGID_3_);fill:#1D1D1B;" width="2.45" height="3.89"/>
	<rect x="379.22" y="182.4" style="clip-path:url(#SVGID_3_);fill:#1D1D1B;" width="2.45" height="3.89"/>
	<rect x="383.67" y="182.4" style="clip-path:url(#SVGID_3_);fill:#1D1D1B;" width="2.45" height="3.89"/>
	<rect x="370.32" y="188.91" style="clip-path:url(#SVGID_3_);fill:#1D1D1B;" width="2.45" height="3.89"/>
	<rect x="374.77" y="188.91" style="clip-path:url(#SVGID_3_);fill:#1D1D1B;" width="2.45" height="3.89"/>
	<rect x="379.22" y="188.91" style="clip-path:url(#SVGID_3_);fill:#1D1D1B;" width="2.45" height="3.89"/>
	<rect x="383.67" y="188.91" style="clip-path:url(#SVGID_3_);fill:#1D1D1B;" width="2.45" height="3.89"/>
	<rect x="370.32" y="195.42" style="clip-path:url(#SVGID_3_);fill:#1D1D1B;" width="2.45" height="3.89"/>
	<rect x="374.77" y="195.42" style="clip-path:url(#SVGID_3_);fill:#1D1D1B;" width="2.45" height="3.89"/>
	<rect x="379.22" y="195.42" style="clip-path:url(#SVGID_3_);fill:#1D1D1B;" width="2.45" height="3.89"/>
	<rect x="383.67" y="195.42" style="clip-path:url(#SVGID_3_);fill:#1D1D1B;" width="2.45" height="3.89"/>
	<rect x="374.77" y="201.92" style="clip-path:url(#SVGID_3_);fill:#1D1D1B;" width="2.45" height="3.89"/>
	<rect x="379.22" y="201.92" style="clip-path:url(#SVGID_3_);fill:#1D1D1B;" width="2.45" height="3.89"/>
	<rect x="383.67" y="201.92" style="clip-path:url(#SVGID_3_);fill:#1D1D1B;" width="2.45" height="3.89"/>
	<rect x="379.22" y="208.43" style="clip-path:url(#SVGID_3_);fill:#1D1D1B;" width="2.45" height="3.89"/>
	<rect x="383.67" y="208.43" style="clip-path:url(#SVGID_3_);fill:#1D1D1B;" width="2.45" height="3.89"/>
	<rect x="383.67" y="214.94" style="clip-path:url(#SVGID_3_);fill:#1D1D1B;" width="2.45" height="3.89"/>
	<g class="st2">
		<polygon class="st8" points="401.77,150.14 401.77,187.55 401.77,200.86 402.48,200.86 402.48,187.55 402.48,150.14 
			402.48,136.83 401.77,136.83 		"/>
		<polygon class="st8" points="403.07,150.14 403.07,187.55 403.07,221.77 403.79,221.77 403.79,187.55 403.79,150.14 
			403.79,122.76 403.07,122.76 		"/>
		<polygon class="st8" points="404.38,150.14 404.38,187.55 404.38,217.02 405.09,217.02 405.09,187.55 405.09,150.14 
			405.09,118.01 404.38,118.01 		"/>
		<polygon class="st8" points="405.69,150.14 405.69,187.55 405.69,224.94 406.4,224.94 406.4,187.55 406.4,150.14 406.4,122.76 
			405.69,122.76 		"/>
		<polygon class="st8" points="406.99,150.14 406.99,187.55 406.99,214.92 407.7,214.92 407.7,187.55 407.7,150.14 407.7,112.73 
			406.99,112.73 		"/>
		<polygon class="st8" points="408.3,150.14 408.3,187.55 408.3,219.67 409,219.67 409,187.55 409,150.14 409,120.66 408.3,120.66 
					"/>
		<polygon class="st8" points="409.6,150.14 409.6,187.55 409.6,214.92 410.31,214.92 410.31,187.55 410.31,150.14 410.31,115.91 
			409.6,115.91 		"/>
		<polygon class="st8" points="410.9,150.14 410.9,187.55 410.9,200.86 411.62,200.86 411.62,187.55 411.62,150.14 411.62,136.83 
			410.9,136.83 		"/>
		<polygon class="st8" points="420.03,136.83 420.03,150.14 420.03,187.55 420.03,200.86 420.74,200.86 420.74,187.55 
			420.74,150.14 420.74,136.83 		"/>
		<polygon class="st8" points="412.21,150.14 412.21,187.55 412.21,221.77 412.92,221.77 412.92,187.55 412.92,150.14 
			412.92,122.76 412.21,122.76 		"/>
		<polygon class="st8" points="413.51,150.14 413.51,187.55 413.51,217.02 414.22,217.02 414.22,187.55 414.22,150.14 
			414.22,118.01 413.51,118.01 		"/>
		<polygon class="st8" points="414.81,150.14 414.81,187.55 414.81,224.94 415.53,224.94 415.53,187.55 415.53,150.14 
			415.53,122.76 414.81,122.76 		"/>
		<polygon class="st8" points="416.11,150.14 416.11,187.55 416.11,214.92 416.83,214.92 416.83,187.55 416.83,150.14 
			416.83,112.73 416.11,112.73 		"/>
		<polygon class="st8" points="417.42,150.14 417.42,187.55 417.42,219.67 418.13,219.67 418.13,187.55 418.13,150.14 
			418.13,120.66 417.42,120.66 		"/>
		<polygon class="st8" points="418.72,150.14 418.72,187.55 418.72,214.92 419.44,214.92 419.44,187.55 419.44,150.14 
			419.44,115.91 418.72,115.91 		"/>
	</g>
	<rect x="427.87" y="153.74" style="clip-path:url(#SVGID_3_);fill:#1D1D1B;" width="15.25" height="2.98"/>
	<rect x="427.87" y="158.76" style="clip-path:url(#SVGID_3_);fill:#1D1D1B;" width="15.25" height="2.98"/>
	<rect x="427.87" y="163.78" style="clip-path:url(#SVGID_3_);fill:#1D1D1B;" width="15.25" height="2.98"/>
	<rect x="427.87" y="168.82" style="clip-path:url(#SVGID_3_);fill:#1D1D1B;" width="15.25" height="2.97"/>
	<rect x="427.87" y="173.84" style="clip-path:url(#SVGID_3_);fill:#1D1D1B;" width="15.25" height="2.97"/>
	<rect x="427.87" y="178.85" style="clip-path:url(#SVGID_3_);fill:#1D1D1B;" width="15.25" height="2.98"/>
	<rect x="427.87" y="183.88" style="clip-path:url(#SVGID_3_);fill:#1D1D1B;" width="15.25" height="2.97"/>
	<rect x="427.87" y="188.9" style="clip-path:url(#SVGID_3_);fill:#1D1D1B;" width="15.25" height="2.97"/>
	<rect x="427.87" y="193.91" style="clip-path:url(#SVGID_3_);fill:#1D1D1B;" width="15.25" height="2.98"/>
	<rect x="427.87" y="198.94" style="clip-path:url(#SVGID_3_);fill:#1D1D1B;" width="15.25" height="2.98"/>
	<rect x="427.87" y="203.96" style="clip-path:url(#SVGID_3_);fill:#1D1D1B;" width="15.25" height="2.98"/>
	<rect x="427.86" y="208.98" style="clip-path:url(#SVGID_3_);fill:#1D1D1B;" width="15.26" height="2.97"/>
	<rect x="427.86" y="214" style="clip-path:url(#SVGID_3_);fill:#1D1D1B;" width="15.26" height="2.97"/>
	<rect x="427.86" y="219.03" style="clip-path:url(#SVGID_3_);fill:#1D1D1B;" width="15.26" height="2.97"/>
	<rect x="427.86" y="224.04" style="clip-path:url(#SVGID_3_);fill:#1D1D1B;" width="15.26" height="2.98"/>
	
		<line style="clip-path:url(#SVGID_3_);fill:#FFFFFF;stroke:#1D1D1B;stroke-width:1.1055;stroke-miterlimit:10;" x1="424.82" y1="149.22" x2="451.37" y2="149.22"/>
	<g class="st2">
		<polygon class="st8" points="344.46,209.64 343.35,209.64 343.35,130.14 338.48,130.14 338.48,112.55 332.13,112.55 
			332.13,100.82 326.74,100.82 326.74,112.55 306.27,112.55 306.27,111.44 325.63,111.44 325.63,99.72 333.24,99.72 333.24,111.44 
			339.58,111.44 339.58,129.03 344.46,129.03 		"/>
	</g>
	<rect x="328.89" y="85.1" style="clip-path:url(#SVGID_3_);fill:#1D1D1B;" width="1.07" height="15.7"/>
	<rect x="322.51" y="115.57" style="clip-path:url(#SVGID_3_);fill:#1D1D1B;" width="2.17" height="2.17"/>
	<rect x="326.37" y="115.57" style="clip-path:url(#SVGID_3_);fill:#1D1D1B;" width="2.17" height="2.17"/>
	<rect x="330.23" y="115.57" style="clip-path:url(#SVGID_3_);fill:#1D1D1B;" width="2.17" height="2.17"/>
	<rect x="334.09" y="115.57" style="clip-path:url(#SVGID_3_);fill:#1D1D1B;" width="2.17" height="2.17"/>
	<rect x="322.51" y="119.62" style="clip-path:url(#SVGID_3_);fill:#1D1D1B;" width="2.17" height="2.17"/>
	<rect x="326.37" y="119.62" style="clip-path:url(#SVGID_3_);fill:#1D1D1B;" width="2.17" height="2.17"/>
	<rect x="330.23" y="119.62" style="clip-path:url(#SVGID_3_);fill:#1D1D1B;" width="2.17" height="2.17"/>
	<rect x="334.09" y="119.62" style="clip-path:url(#SVGID_3_);fill:#1D1D1B;" width="2.17" height="2.17"/>
	<rect x="322.51" y="123.68" style="clip-path:url(#SVGID_3_);fill:#1D1D1B;" width="2.17" height="2.17"/>
	<rect x="326.37" y="123.68" style="clip-path:url(#SVGID_3_);fill:#1D1D1B;" width="2.17" height="2.17"/>
	<rect x="330.23" y="123.68" style="clip-path:url(#SVGID_3_);fill:#1D1D1B;" width="2.17" height="2.17"/>
	<rect x="334.09" y="123.68" style="clip-path:url(#SVGID_3_);fill:#1D1D1B;" width="2.17" height="2.17"/>
	<rect x="322.51" y="127.75" style="clip-path:url(#SVGID_3_);fill:#1D1D1B;" width="2.17" height="2.17"/>
	<rect x="326.37" y="127.75" style="clip-path:url(#SVGID_3_);fill:#1D1D1B;" width="2.17" height="2.17"/>
	<rect x="330.23" y="127.75" style="clip-path:url(#SVGID_3_);fill:#1D1D1B;" width="2.17" height="2.17"/>
	<rect x="334.09" y="127.75" style="clip-path:url(#SVGID_3_);fill:#1D1D1B;" width="2.17" height="2.17"/>
	<rect x="322.51" y="131.81" style="clip-path:url(#SVGID_3_);fill:#1D1D1B;" width="2.17" height="2.17"/>
	<rect x="326.37" y="131.81" style="clip-path:url(#SVGID_3_);fill:#1D1D1B;" width="2.17" height="2.17"/>
	<rect x="330.23" y="131.81" style="clip-path:url(#SVGID_3_);fill:#1D1D1B;" width="2.17" height="2.17"/>
	<rect x="334.09" y="131.81" style="clip-path:url(#SVGID_3_);fill:#1D1D1B;" width="2.17" height="2.17"/>
	<rect x="322.51" y="135.86" style="clip-path:url(#SVGID_3_);fill:#1D1D1B;" width="2.17" height="2.17"/>
	<rect x="326.37" y="135.86" style="clip-path:url(#SVGID_3_);fill:#1D1D1B;" width="2.17" height="2.17"/>
	<rect x="330.23" y="135.86" style="clip-path:url(#SVGID_3_);fill:#1D1D1B;" width="2.17" height="2.17"/>
	<rect x="334.09" y="135.86" style="clip-path:url(#SVGID_3_);fill:#1D1D1B;" width="2.17" height="2.17"/>
	<rect x="322.51" y="139.92" style="clip-path:url(#SVGID_3_);fill:#1D1D1B;" width="2.17" height="2.17"/>
	<rect x="326.37" y="139.92" style="clip-path:url(#SVGID_3_);fill:#1D1D1B;" width="2.17" height="2.17"/>
	<rect x="330.23" y="139.92" style="clip-path:url(#SVGID_3_);fill:#1D1D1B;" width="2.17" height="2.17"/>
	<rect x="334.09" y="139.92" style="clip-path:url(#SVGID_3_);fill:#1D1D1B;" width="2.17" height="2.17"/>
	<rect x="322.51" y="143.98" style="clip-path:url(#SVGID_3_);fill:#1D1D1B;" width="2.17" height="2.17"/>
	<rect x="326.37" y="143.98" style="clip-path:url(#SVGID_3_);fill:#1D1D1B;" width="2.17" height="2.17"/>
	<rect x="330.23" y="143.98" style="clip-path:url(#SVGID_3_);fill:#1D1D1B;" width="2.17" height="2.17"/>
	<rect x="334.09" y="143.98" style="clip-path:url(#SVGID_3_);fill:#1D1D1B;" width="2.17" height="2.17"/>
	<rect x="322.51" y="148.04" style="clip-path:url(#SVGID_3_);fill:#1D1D1B;" width="2.17" height="2.17"/>
	<rect x="326.37" y="148.04" style="clip-path:url(#SVGID_3_);fill:#1D1D1B;" width="2.17" height="2.17"/>
	<rect x="330.23" y="148.04" style="clip-path:url(#SVGID_3_);fill:#1D1D1B;" width="2.17" height="2.17"/>
	<rect x="334.09" y="148.04" style="clip-path:url(#SVGID_3_);fill:#1D1D1B;" width="2.17" height="2.17"/>
	<rect x="322.51" y="152.1" style="clip-path:url(#SVGID_3_);fill:#1D1D1B;" width="2.17" height="2.17"/>
	<rect x="326.37" y="152.1" style="clip-path:url(#SVGID_3_);fill:#1D1D1B;" width="2.17" height="2.17"/>
	<rect x="330.23" y="152.1" style="clip-path:url(#SVGID_3_);fill:#1D1D1B;" width="2.17" height="2.17"/>
	<rect x="334.09" y="152.1" style="clip-path:url(#SVGID_3_);fill:#1D1D1B;" width="2.17" height="2.17"/>
	<rect x="322.51" y="156.15" style="clip-path:url(#SVGID_3_);fill:#1D1D1B;" width="2.17" height="2.17"/>
	<rect x="326.37" y="156.15" style="clip-path:url(#SVGID_3_);fill:#1D1D1B;" width="2.17" height="2.17"/>
	<rect x="330.23" y="156.15" style="clip-path:url(#SVGID_3_);fill:#1D1D1B;" width="2.17" height="2.17"/>
	<rect x="334.09" y="156.15" style="clip-path:url(#SVGID_3_);fill:#1D1D1B;" width="2.17" height="2.17"/>
	<rect x="322.51" y="160.21" style="clip-path:url(#SVGID_3_);fill:#1D1D1B;" width="2.17" height="2.17"/>
	<rect x="326.37" y="160.21" style="clip-path:url(#SVGID_3_);fill:#1D1D1B;" width="2.17" height="2.17"/>
	<rect x="330.23" y="160.21" style="clip-path:url(#SVGID_3_);fill:#1D1D1B;" width="2.17" height="2.17"/>
	<rect x="334.09" y="160.21" style="clip-path:url(#SVGID_3_);fill:#1D1D1B;" width="2.17" height="2.17"/>
	<rect x="322.51" y="164.27" style="clip-path:url(#SVGID_3_);fill:#1D1D1B;" width="2.17" height="2.17"/>
	<polyline style="clip-path:url(#SVGID_3_);fill:#1D1D1B;" points="328.54,166.44 326.37,166.44 326.37,164.27 328.54,164.27 	"/>
	<rect x="330.23" y="164.27" style="clip-path:url(#SVGID_3_);fill:#1D1D1B;" width="2.17" height="2.17"/>
	<rect x="334.09" y="164.27" style="clip-path:url(#SVGID_3_);fill:#1D1D1B;" width="2.17" height="2.17"/>
	<rect x="322.51" y="168.33" style="clip-path:url(#SVGID_3_);fill:#1D1D1B;" width="2.17" height="2.17"/>
	<rect x="326.37" y="168.33" style="clip-path:url(#SVGID_3_);fill:#1D1D1B;" width="2.17" height="2.17"/>
	<rect x="330.23" y="168.33" style="clip-path:url(#SVGID_3_);fill:#1D1D1B;" width="2.17" height="2.17"/>
	<polyline style="clip-path:url(#SVGID_3_);fill:#1D1D1B;" points="336.26,168.33 336.26,170.5 334.09,170.5 334.09,168.33 	"/>
	<rect x="322.51" y="172.39" style="clip-path:url(#SVGID_3_);fill:#1D1D1B;" width="2.17" height="2.17"/>
	<rect x="326.37" y="172.39" style="clip-path:url(#SVGID_3_);fill:#1D1D1B;" width="2.17" height="2.17"/>
	<rect x="330.23" y="172.39" style="clip-path:url(#SVGID_3_);fill:#1D1D1B;" width="2.17" height="2.17"/>
	<rect x="334.09" y="172.39" style="clip-path:url(#SVGID_3_);fill:#1D1D1B;" width="2.17" height="2.17"/>
	<rect x="322.51" y="176.45" style="clip-path:url(#SVGID_3_);fill:#1D1D1B;" width="2.17" height="2.17"/>
	<rect x="326.37" y="176.45" style="clip-path:url(#SVGID_3_);fill:#1D1D1B;" width="2.17" height="2.17"/>
	<rect x="330.23" y="176.45" style="clip-path:url(#SVGID_3_);fill:#1D1D1B;" width="2.17" height="2.17"/>
	<rect x="334.09" y="176.45" style="clip-path:url(#SVGID_3_);fill:#1D1D1B;" width="2.17" height="2.17"/>
	<rect x="322.51" y="180.51" style="clip-path:url(#SVGID_3_);fill:#1D1D1B;" width="2.17" height="2.17"/>
	<rect x="326.37" y="180.51" style="clip-path:url(#SVGID_3_);fill:#1D1D1B;" width="2.17" height="2.17"/>
	<rect x="330.23" y="180.51" style="clip-path:url(#SVGID_3_);fill:#1D1D1B;" width="2.17" height="2.17"/>
	<rect x="334.09" y="180.51" style="clip-path:url(#SVGID_3_);fill:#1D1D1B;" width="2.17" height="2.17"/>
	<rect x="322.51" y="184.56" style="clip-path:url(#SVGID_3_);fill:#1D1D1B;" width="2.17" height="2.17"/>
	<rect x="326.37" y="184.56" style="clip-path:url(#SVGID_3_);fill:#1D1D1B;" width="2.17" height="2.17"/>
	<rect x="330.23" y="184.56" style="clip-path:url(#SVGID_3_);fill:#1D1D1B;" width="2.17" height="2.17"/>
	<rect x="334.09" y="184.56" style="clip-path:url(#SVGID_3_);fill:#1D1D1B;" width="2.17" height="2.17"/>
	<rect x="322.51" y="188.62" style="clip-path:url(#SVGID_3_);fill:#1D1D1B;" width="2.17" height="2.17"/>
	<rect x="326.37" y="188.62" style="clip-path:url(#SVGID_3_);fill:#1D1D1B;" width="2.17" height="2.17"/>
	<rect x="330.23" y="188.62" style="clip-path:url(#SVGID_3_);fill:#1D1D1B;" width="2.17" height="2.17"/>
	<rect x="334.09" y="188.62" style="clip-path:url(#SVGID_3_);fill:#1D1D1B;" width="2.17" height="2.17"/>
	<rect x="322.51" y="192.68" style="clip-path:url(#SVGID_3_);fill:#1D1D1B;" width="2.17" height="2.17"/>
	<rect x="326.37" y="192.68" style="clip-path:url(#SVGID_3_);fill:#1D1D1B;" width="2.17" height="2.17"/>
	<rect x="330.23" y="192.68" style="clip-path:url(#SVGID_3_);fill:#1D1D1B;" width="2.17" height="2.17"/>
	<rect x="334.09" y="192.68" style="clip-path:url(#SVGID_3_);fill:#1D1D1B;" width="2.17" height="2.17"/>
	<polygon style="clip-path:url(#SVGID_3_);fill:#1D1D1B;" points="343.9,148.04 343.9,151.05 357.61,151.05 357.9,148.04 	"/>
	<polygon style="clip-path:url(#SVGID_3_);fill:#1D1D1B;" points="343.9,154.46 343.9,157.48 356.97,157.48 357.27,154.46 	"/>
	<polygon style="clip-path:url(#SVGID_3_);fill:#1D1D1B;" points="343.9,160.9 343.9,163.91 356.34,163.91 356.64,160.9 	"/>
	<polygon style="clip-path:url(#SVGID_3_);fill:#1D1D1B;" points="343.9,167.34 343.9,170.36 355.71,170.36 356.01,167.34 	"/>
	<polygon style="clip-path:url(#SVGID_3_);fill:#1D1D1B;" points="343.9,173.77 343.9,176.78 355.07,176.78 355.37,173.77 	"/>
	<polygon style="clip-path:url(#SVGID_3_);fill:#1D1D1B;" points="343.9,180.2 343.9,183.21 354.44,183.21 354.74,180.2 	"/>
	<polygon style="clip-path:url(#SVGID_3_);fill:#1D1D1B;" points="343.9,186.63 343.9,189.64 353.81,189.64 354.1,186.63 	"/>
	<polygon style="clip-path:url(#SVGID_3_);fill:#1D1D1B;" points="343.9,193.06 343.9,196.08 353.17,196.08 353.47,193.06 	"/>
	<polygon style="clip-path:url(#SVGID_3_);fill:#1D1D1B;" points="343.9,199.49 343.9,202.51 352.54,202.51 352.83,199.49 	"/>
</g>
</svg>
